<svg id="Lager_1" data-name="Lager 1" xmlns="http://www.w3.org/2000/svg" viewBox="0 0 1000 1000"><defs><style>.cls-1{fill:#f0c900;stroke:#f0c900;stroke-miterlimit:10;stroke-width:120px;}</style></defs><title>Arrow-down</title><path class="cls-1" d="M879,148.74c-1.15,6.63-4.79,12.21-7.68,18.1-5.64,11.47-11.39,22.88-17.13,34.3Q827,255.31,799.72,309.48L746.08,416.14,691.86,523.92,638.21,630.57q-27.18,54-54.34,108.07-26.61,52.9-53.24,105.81c-3.21,6.35-6.54,12.64-9.77,19a23.71,23.71,0,0,1-15.51,12.78,19.41,19.41,0,0,0-2.56,1h-6.3c-1-.36-1.93-.8-2.94-1.07a23.64,23.64,0,0,1-15.46-12.83c-7.88-15.61-15.85-31.18-23.71-46.8-10.49-20.88-20.88-41.81-31.37-62.69q-27.28-54.35-54.64-108.66l-53.79-107q-27-53.78-54.08-107.53L207,324.3q-27.18-54-54.38-108.09c-9.84-19.55-19.78-39.05-29.57-58.63a34,34,0,0,1-2.84-8.27c-2.68-13.21,8.23-26.88,22-27.14a25.87,25.87,0,0,1,15.43,4.37q22.32,15,44.73,29.83,27.36,18.18,54.75,36.31l51.11,33.86,56.6,37.51,51.62,34.22q28.17,18.66,56.35,37.33c8.82,5.83,17.69,11.6,26.69,17.49.92-.58,1.9-1.17,2.85-1.8,7.6-5.05,15.17-10.13,22.77-15.17l55.28-36.65,53.2-35.26,54.76-36.29,51.89-34.39q28-18.59,56.07-37.17,22.66-15,45.34-30c7-4.63,14.48-5.59,22.19-2.7,8.11,3,13.29,8.89,14.67,17.7a4.57,4.57,0,0,0,.5,1.11Z"/></svg>