<svg id="Lager_1" data-name="Lager 1" xmlns="http://www.w3.org/2000/svg" viewBox="0 0 1000 1000"><defs><style>.cls-1{fill:#c4c4c4;stroke:#c4c4c4;stroke-miterlimit:10;stroke-width:120px;}</style></defs><title>Arrow-up-ghost</title><path class="cls-1" d="M119.78,850.52c1.16-6.63,4.8-12.22,7.69-18.1,5.63-11.47,11.38-22.88,17.12-34.3q27.24-54.18,54.49-108.34,26.82-53.32,53.64-106.66l54.21-107.78Q333.77,422,360.59,368.69q27.17-54,54.34-108.07,26.61-52.92,53.24-105.81c3.2-6.35,6.54-12.64,9.77-19a23.69,23.69,0,0,1,15.5-12.78,20.38,20.38,0,0,0,2.57-1h6.29c1,.36,1.94.8,2.94,1.07a23.65,23.65,0,0,1,15.46,12.82c7.88,15.62,15.86,31.19,23.71,46.81,10.5,20.88,20.89,41.81,31.37,62.69q27.3,54.35,54.64,108.65,26.91,53.49,53.79,107L738.3,568.55Q765,621.76,791.81,675,819,729,846.19,783C856,802.59,866,822.1,875.76,841.68A33.17,33.17,0,0,1,878.6,850c2.69,13.21-8.23,26.87-22,27.14a25.85,25.85,0,0,1-15.43-4.37q-22.32-15-44.74-29.83-27.36-18.18-54.75-36.31l-51.1-33.86L634,735.21,582.34,701Q554.17,682.33,526,663.66c-8.83-5.83-17.7-11.6-26.69-17.49-.93.58-1.91,1.17-2.86,1.8l-22.76,15.17L418.4,699.79,365.21,735l-54.77,36.3-51.88,34.39L202.49,842.9q-22.67,15-45.34,30c-7,4.63-14.49,5.59-22.19,2.7-8.11-3-13.29-8.89-14.68-17.7a4.22,4.22,0,0,0-.5-1.11Z"/></svg>