<svg version="1.1" id="Layer_1" xmlns="http://www.w3.org/2000/svg" xmlns:xlink="http://www.w3.org/1999/xlink" x="0px" y="0px"
	 width="100%" viewBox="0 0 2080 2080" enable-background="new 0 0 2080 2080" xml:space="preserve">
<path fill="#000000" opacity="1.000000" stroke="none" 
	d="
M2082.000000,1497.062744 
	C2081.409668,1498.720581 2080.377686,1499.392822 2080.292969,1500.168701 
	C2075.651611,1542.572998 2058.763428,1580.270142 2035.739868,1615.530884 
	C2011.109131,1653.253174 1980.111816,1685.247925 1945.808350,1714.173584 
	C1890.720825,1760.624634 1829.583374,1797.710083 1765.456543,1830.079712 
	C1656.530762,1885.062866 1542.244507,1925.833740 1424.715820,1957.882202 
	C1372.026733,1972.249756 1318.872925,1984.679321 1264.859619,1992.964233 
	C1245.797974,1995.887939 1226.528931,1997.799805 1207.281372,1999.016479 
	C1198.819214,1999.551514 1190.105469,1997.562500 1181.643677,1995.981934 
	C1177.864136,1995.276001 1174.098999,1993.214478 1170.895874,1990.960327 
	C1163.579468,1985.811279 1162.324585,1978.466553 1168.632324,1972.260986 
	C1173.733032,1967.242554 1179.919556,1962.412842 1186.535767,1960.034424 
	C1201.829346,1954.536377 1217.520142,1949.936157 1233.322754,1946.094116 
	C1357.369019,1915.935303 1479.665894,1880.326294 1597.250854,1829.970093 
	C1659.233887,1803.425659 1719.138184,1772.961914 1774.415527,1734.029663 
	C1811.375122,1707.998657 1845.405396,1678.754150 1872.658325,1642.319702 
	C1889.371582,1619.975830 1902.230835,1595.716553 1909.092041,1568.448486 
	C1916.486084,1539.062622 1912.884277,1510.278931 1904.916992,1481.693359 
	C1899.964722,1463.924927 1892.760620,1447.157959 1881.992188,1432.058105 
	C1861.922974,1403.916260 1833.802246,1388.826904 1800.628418,1382.035889 
	C1771.941284,1376.163330 1742.975220,1376.661743 1714.027832,1379.064331 
	C1664.849731,1383.146240 1616.617188,1393.614258 1567.935303,1401.060181 
	C1539.006958,1405.484741 1509.827515,1408.506348 1480.665894,1411.083984 
	C1460.367065,1412.878174 1440.082275,1410.804321 1420.121460,1406.297241 
	C1378.546143,1396.909180 1352.593628,1371.177246 1340.170532,1330.788574 
	C1326.469360,1286.243652 1337.144775,1248.073120 1369.528931,1215.398682 
	C1393.924438,1190.784302 1423.662476,1174.622070 1455.493164,1161.991821 
	C1496.297119,1145.800903 1538.796997,1136.696045 1582.325195,1131.622559 
	C1615.863159,1127.713623 1649.482300,1126.664673 1683.110229,1128.317261 
	C1761.434326,1132.165894 1836.861816,1148.260742 1907.134277,1184.374756 
	C1958.703613,1210.877197 2002.351074,1246.629517 2034.507324,1295.468994 
	C2058.927002,1332.557861 2073.103760,1373.449463 2079.572510,1417.180054 
	C2080.009277,1420.131836 2079.903076,1423.163818 2079.925781,1427.900879 
	C2080.534424,1435.095459 2081.267334,1440.547729 2082.000000,1446.000000 
	C2082.000000,1462.708496 2082.000000,1479.416992 2082.000000,1497.062744 
z"/>
<path fill="#000000" opacity="1.000000" stroke="none" 
	d="
M2.000000,774.937317 
	C2.702987,773.936584 3.405973,773.873108 4.884082,774.715332 
	C5.527730,795.159546 5.396256,814.698059 5.264783,834.236511 
	C4.541551,834.140869 3.818318,834.045288 2.547543,833.974854 
	C2.000000,814.624878 2.000000,795.249756 2.000000,774.937317 
z"/>
<path fill="#000000" opacity="1.000000" stroke="none" 
	d="
M2082.000000,1445.100098 
	C2081.267334,1440.547729 2080.534424,1435.095459 2079.959229,1428.773560 
	C2080.116699,1427.903931 2081.047607,1428.160645 2081.523926,1428.080322 
	C2082.000000,1433.400024 2082.000000,1438.800049 2082.000000,1445.100098 
z"/>
<path fill="#000000" opacity="1.000000" stroke="none" 
	d="
M5.392412,835.137390 
	C5.396256,814.698059 5.527730,795.159546 5.416536,774.696960 
	C7.163897,741.019897 12.458999,708.852783 24.373940,678.174133 
	C56.199589,596.229309 117.432442,550.315857 202.806885,535.959229 
	C254.364807,527.289185 302.748291,539.737488 348.388672,563.810608 
	C399.272278,590.649414 441.174438,628.379456 478.006561,672.088806 
	C484.870605,680.234497 491.367035,688.689941 498.057800,696.982483 
	C498.193970,697.151306 498.632416,697.076233 500.084229,697.265137 
	C499.264648,687.365784 498.584717,677.658264 497.638153,667.976807 
	C493.284058,623.443359 492.647369,578.779724 494.422638,534.145996 
	C497.212738,463.998413 506.512848,394.837189 529.861084,328.179230 
	C543.955078,287.941742 562.959778,250.329514 590.551208,217.503342 
	C631.128723,169.227341 682.978943,141.263092 745.181824,131.901550 
	C824.939941,119.897972 892.991455,144.883102 952.167480,197.453979 
	C992.561157,233.339005 1022.868103,276.999542 1048.003418,324.455780 
	C1080.783813,386.346405 1103.105591,452.117920 1119.937378,519.878479 
	C1133.758423,575.518738 1143.522583,631.894531 1150.400269,688.805359 
	C1156.278076,737.442444 1160.062744,786.218506 1162.498535,835.148804 
	C1165.948242,904.447998 1166.083618,973.773010 1163.298462,1043.032349 
	C1160.983765,1100.593628 1156.882080,1158.112061 1152.234863,1215.541382 
	C1148.422119,1262.658813 1143.463867,1309.721436 1137.516479,1356.618408 
	C1130.774902,1409.778198 1123.331421,1462.889038 1114.445312,1515.727173 
	C1102.523071,1586.615845 1089.957031,1657.430786 1075.754761,1727.891846 
	C1061.683960,1797.699951 1045.411621,1867.068481 1029.717651,1936.542358 
	C1025.524780,1955.103271 1019.193970,1973.150391 1008.411316,1989.041504 
	C1003.430664,1996.381958 997.558411,2003.598267 990.652588,2009.049316 
	C977.229004,2019.645142 963.075195,2016.026489 956.606628,2000.163086 
	C952.912842,1991.104492 951.048157,1980.969971 950.175232,1971.158325 
	C948.208496,1949.051514 952.787537,1927.414307 956.524231,1905.730835 
	C965.285400,1854.891724 974.610962,1804.125732 982.038757,1753.087280 
	C989.612549,1701.045654 995.804688,1648.779663 1001.434692,1596.486206 
	C1005.426147,1559.412598 1007.721680,1522.147339 1010.344727,1484.937256 
	C1016.112183,1403.123047 1018.825562,1321.181641 1017.373779,1239.186157 
	C1016.424194,1185.560181 1014.392029,1131.918335 1011.280762,1078.374512 
	C1007.629211,1015.532776 1001.074097,952.914368 992.012512,890.591003 
	C978.194702,795.556274 959.370911,701.658630 928.019104,610.637207 
	C913.234436,567.713806 895.746094,525.990662 871.780029,487.251801 
	C860.525696,469.060272 847.833801,451.957581 832.302246,437.113312 
	C822.361633,427.612549 811.491089,419.429626 798.944702,413.631958 
	C768.919006,399.756958 736.834106,405.072632 712.999573,427.938171 
	C696.240112,444.016357 686.006958,464.125793 677.941040,485.487518 
	C667.067749,514.284363 660.749573,544.237610 656.058105,574.552246 
	C648.101807,625.963562 644.582642,677.790649 641.563049,729.677124 
	C639.279358,768.917847 636.786743,808.157837 633.520752,847.325928 
	C631.197876,875.183289 628.169678,903.090393 619.757080,929.927917 
	C616.800781,939.358948 612.797791,948.764526 607.565186,957.111267 
	C598.824585,971.053833 587.328979,974.775208 572.314819,968.059631 
	C561.183655,963.080811 550.230896,956.799377 540.789734,949.137634 
	C522.183105,934.037964 504.400177,917.881226 486.784058,901.612122 
	C454.714111,871.994385 423.356934,841.598633 391.042236,812.254395 
	C368.817535,792.072693 344.810272,774.045166 318.349609,759.553711 
	C303.658600,751.508057 288.368164,744.885315 271.751160,742.241455 
	C238.675217,736.979126 213.128738,749.633911 193.943115,776.253601 
	C182.427216,792.231812 176.243210,810.529785 172.435654,829.606384 
	C166.185837,860.919617 166.274902,892.578857 169.106033,924.189636 
	C177.038467,1012.758728 201.721146,1097.362549 231.046661,1180.773071 
	C268.899872,1288.438843 316.129913,1392.008911 368.882477,1493.103027 
	C425.516357,1601.635254 488.516968,1706.348022 558.576172,1806.764160 
	C574.399048,1829.443237 590.864014,1851.674927 607.080994,1874.078125 
	C615.322571,1885.463501 622.988525,1897.163330 626.441772,1911.007812 
	C627.477966,1915.162109 628.163513,1919.527222 628.159607,1923.794922 
	C628.145935,1938.670532 618.206604,1947.783936 603.516541,1945.296509 
	C595.462341,1943.932739 586.970337,1941.457397 580.184204,1937.121948 
	C568.477539,1929.643433 557.007751,1921.285522 547.091553,1911.603516 
	C510.760773,1876.130737 479.032623,1836.589233 448.464081,1796.164917 
	C348.730743,1664.274902 262.315765,1524.012085 186.331863,1377.257690 
	C137.116241,1282.203125 93.456398,1184.712769 59.074917,1083.230835 
	C39.068962,1024.180298 22.552568,964.187256 12.893655,902.522583 
	C9.446647,880.516113 7.922101,858.208435 5.392412,835.137390 
z"/>
<path fill="#000000" opacity="1.000000" stroke="none" 
	d="
M1571.305420,791.405884 
	C1625.871948,773.602539 1679.679077,756.018494 1731.815430,733.799194 
	C1758.504517,722.425049 1784.593018,709.840271 1809.155518,694.290955 
	C1831.534668,680.123840 1852.306885,664.060791 1868.421021,642.731567 
	C1897.112793,604.754639 1900.372070,563.315552 1883.834106,519.814697 
	C1875.211304,497.133850 1857.933105,482.249359 1836.180664,472.381927 
	C1817.780762,464.035400 1798.224365,460.125000 1778.260864,458.036652 
	C1738.568848,453.884583 1699.024292,456.530060 1659.629272,461.493469 
	C1609.752563,467.777435 1560.029053,475.329437 1510.096802,481.099670 
	C1488.004883,483.652679 1465.559204,483.853577 1443.281250,483.738098 
	C1434.229248,483.691162 1424.947021,480.690552 1416.223389,477.706573 
	C1407.107910,474.588562 1402.171875,467.167480 1400.017090,457.660706 
	C1395.594482,438.147308 1399.351807,419.967041 1408.298340,402.551727 
	C1415.982544,387.593475 1426.079956,374.277466 1438.053101,362.619049 
	C1459.060913,342.163574 1480.635010,322.290375 1501.916748,302.115143 
	C1514.032593,290.629059 1525.600220,278.634430 1534.462036,264.351501 
	C1539.778687,255.782578 1543.871704,246.747742 1544.325562,236.406357 
	C1545.249634,215.350601 1536.372559,202.176193 1516.293335,195.721222 
	C1500.858887,190.759430 1484.921753,190.127579 1468.849609,191.023239 
	C1415.229126,194.011444 1363.729980,207.583511 1312.578369,222.638092 
	C1270.400757,235.051529 1228.866699,249.410645 1188.131592,266.013702 
	C1182.199463,268.431519 1176.227783,269.930420 1169.664917,268.490631 
	C1151.490601,264.503326 1143.231934,244.764862 1154.088379,229.632202 
	C1157.890381,224.332672 1163.174805,219.888641 1168.398438,215.851166 
	C1200.384521,191.128525 1234.799805,170.152161 1270.280396,150.909363 
	C1323.140381,122.240913 1377.906372,98.126030 1436.281982,82.934265 
	C1468.642578,74.512703 1501.484131,69.102547 1535.046387,70.355583 
	C1571.772949,71.726753 1606.700073,79.988594 1635.524170,104.086578 
	C1677.714355,139.358902 1697.641235,184.619522 1692.556519,240.039047 
	C1689.700317,271.170105 1678.851929,299.562744 1662.948730,326.216797 
	C1661.293701,328.990540 1659.702515,331.802429 1657.643066,335.352936 
	C1674.722046,332.429718 1690.656982,329.168274 1706.741943,327.042816 
	C1772.410400,318.365356 1837.679688,318.456238 1901.722900,338.134033 
	C1945.273682,351.515411 1983.360229,373.813080 2013.706421,408.384033 
	C2034.217529,431.750732 2048.756104,458.529449 2059.266113,487.621765 
	C2074.373047,529.438171 2082.206299,572.476379 2079.655029,617.015930 
	C2077.077881,662.010498 2063.897949,703.977661 2041.746216,743.147522 
	C2016.992188,786.918945 1983.928955,823.673401 1945.829834,856.119385 
	C1891.611450,902.292908 1830.731689,937.809265 1766.258179,967.364868 
	C1686.647461,1003.859558 1603.760620,1030.646606 1518.165527,1048.979004 
	C1486.324951,1055.798584 1454.601685,1055.186523 1423.612061,1044.029419 
	C1401.143921,1035.940308 1382.100220,1022.861145 1367.564819,1003.761780 
	C1334.705444,960.584656 1341.441162,903.372681 1383.513794,866.475159 
	C1401.857056,850.388123 1423.056885,839.446228 1446.073486,831.925537 
	C1487.527222,818.380249 1529.058472,805.072327 1571.305420,791.405884 
z"/>
</svg>