<?xml version="1.0" encoding="utf-8"?>
<!-- Generator: Adobe Illustrator 23.0.1, SVG Export Plug-In . SVG Version: 6.00 Build 0)  -->
<svg version="1.1" id="Layer_1" xmlns="http://www.w3.org/2000/svg" xmlns:xlink="http://www.w3.org/1999/xlink" x="0px" y="0px"
	 viewBox="0 0 243 251" style="enable-background:new 0 0 243 251;" xml:space="preserve">
<style type="text/css">
	.st0{fill-rule:evenodd;clip-rule:evenodd;fill:#EE2A7B;}
	.st1{fill-rule:evenodd;clip-rule:evenodd;fill:url(#SVGID_1_);}
	.st2{fill-rule:evenodd;clip-rule:evenodd;fill:url(#SVGID_2_);}
	.st3{fill-rule:evenodd;clip-rule:evenodd;fill:url(#SVGID_3_);}
	.st4{fill-rule:evenodd;clip-rule:evenodd;fill:url(#SVGID_4_);}
	.st5{fill-rule:evenodd;clip-rule:evenodd;fill:url(#SVGID_5_);}
	.st6{fill-rule:evenodd;clip-rule:evenodd;fill:url(#SVGID_6_);}
	.st7{fill-rule:evenodd;clip-rule:evenodd;fill:url(#SVGID_7_);}
	.st8{fill-rule:evenodd;clip-rule:evenodd;fill:url(#SVGID_8_);}
	.st9{fill-rule:evenodd;clip-rule:evenodd;fill:url(#SVGID_9_);}
	.st10{fill-rule:evenodd;clip-rule:evenodd;fill:url(#SVGID_10_);}
	.st11{fill-rule:evenodd;clip-rule:evenodd;fill:url(#SVGID_11_);}
	.st12{fill-rule:evenodd;clip-rule:evenodd;fill:url(#SVGID_12_);}
	.st13{fill-rule:evenodd;clip-rule:evenodd;fill:url(#SVGID_13_);}
	.st14{fill-rule:evenodd;clip-rule:evenodd;fill:url(#SVGID_14_);}
	.st15{fill-rule:evenodd;clip-rule:evenodd;fill:url(#SVGID_15_);}
	.st16{fill-rule:evenodd;clip-rule:evenodd;fill:url(#SVGID_16_);}
	.st17{fill-rule:evenodd;clip-rule:evenodd;fill:url(#SVGID_17_);}
	.st18{fill-rule:evenodd;clip-rule:evenodd;fill:url(#SVGID_18_);}
	.st19{fill-rule:evenodd;clip-rule:evenodd;fill:url(#SVGID_19_);}
	.st20{fill-rule:evenodd;clip-rule:evenodd;fill:url(#SVGID_20_);}
	.st21{fill-rule:evenodd;clip-rule:evenodd;fill:url(#SVGID_21_);}
	.st22{fill-rule:evenodd;clip-rule:evenodd;fill:url(#SVGID_22_);}
	.st23{fill-rule:evenodd;clip-rule:evenodd;fill:url(#SVGID_23_);}
	.st24{fill-rule:evenodd;clip-rule:evenodd;fill:url(#SVGID_24_);}
	.st25{fill-rule:evenodd;clip-rule:evenodd;fill:url(#SVGID_25_);}
	.st26{fill-rule:evenodd;clip-rule:evenodd;fill:url(#SVGID_26_);}
	.st27{enable-background:new    ;}
	.st28{fill-rule:evenodd;clip-rule:evenodd;fill:#FCDA06;}
	.st29{fill:#F7F7F7;}
</style>
<ellipse id="Background" class="st0" cx="120.07" cy="126.61" rx="104.36" ry="104.18"/>
<g id="Shadow-new">
	<g>
		<linearGradient id="SVGID_1_" gradientUnits="userSpaceOnUse" x1="142.0047" y1="38.4388" x2="151.2309" y2="47.3485">
			<stop  offset="0" style="stop-color:#000000;stop-opacity:0.3"/>
			<stop  offset="0.0889" style="stop-color:#000000;stop-opacity:0.2576"/>
			<stop  offset="0.6291" style="stop-color:#000000;stop-opacity:0"/>
		</linearGradient>
		<path class="st1" d="M165.36,32.72c-4.14-1.99-8.43-3.71-12.85-5.15l-24.39,25.25c0.67,0.65,1.26,1.38,1.76,2.17L165.36,32.72z"/>
		<linearGradient id="SVGID_2_" gradientUnits="userSpaceOnUse" x1="147.6691" y1="44.2076" x2="141.5037" y2="34.7138">
			<stop  offset="0" style="stop-color:#000000;stop-opacity:0.3"/>
			<stop  offset="0.0889" style="stop-color:#000000;stop-opacity:0.2576"/>
			<stop  offset="0.6291" style="stop-color:#000000;stop-opacity:0"/>
		</linearGradient>
		<path class="st2" d="M165.36,32.72c-4.14-1.99-8.43-3.71-12.85-5.15l-24.39,25.25c0.67,0.65,1.26,1.38,1.76,2.17L165.36,32.72z"/>
	</g>
	<g>
		<linearGradient id="SVGID_3_" gradientUnits="userSpaceOnUse" x1="115.7883" y1="36.5365" x2="128.7174" y2="34.2567">
			<stop  offset="0" style="stop-color:#000000;stop-opacity:0.3"/>
			<stop  offset="0.0889" style="stop-color:#000000;stop-opacity:0.2576"/>
			<stop  offset="0.6291" style="stop-color:#000000;stop-opacity:0"/>
		</linearGradient>
		<path class="st3" d="M118.12,49.74c0.64-0.11,1.29-0.18,1.96-0.18s1.32,0.07,1.96,0.18l4.64-27.1c-2.18-0.14-4.38-0.21-6.6-0.21
			s-4.42,0.08-6.6,0.21L118.12,49.74z"/>
		
			<linearGradient id="SVGID_4_" gradientUnits="userSpaceOnUse" x1="115.7883" y1="36.5365" x2="128.7174" y2="34.2567" gradientTransform="matrix(-1 0 0 1 240.1428 0)">
			<stop  offset="0" style="stop-color:#000000;stop-opacity:0.3"/>
			<stop  offset="0.0889" style="stop-color:#000000;stop-opacity:0.2576"/>
			<stop  offset="0.6291" style="stop-color:#000000;stop-opacity:0"/>
		</linearGradient>
		<path class="st4" d="M122.03,49.74c-0.64-0.11-1.29-0.18-1.96-0.18s-1.32,0.07-1.96,0.18l-4.64-27.1c2.18-0.14,4.38-0.21,6.6-0.21
			s4.42,0.08,6.6,0.21L122.03,49.74z"/>
	</g>
	<g>
		<linearGradient id="SVGID_5_" gradientUnits="userSpaceOnUse" x1="165.3176" y1="60.2594" x2="164.7172" y2="48.8023">
			<stop  offset="0" style="stop-color:#000000;stop-opacity:0.3"/>
			<stop  offset="0.0889" style="stop-color:#000000;stop-opacity:0.2576"/>
			<stop  offset="0.6291" style="stop-color:#000000;stop-opacity:0"/>
		</linearGradient>
		<path class="st5" d="M131.43,58.88c0.12,0.61,0.18,1.24,0.21,1.88l67.4-2.27c-3.38-3.9-7.05-7.55-10.97-10.91L131.43,58.88z"/>
		<linearGradient id="SVGID_6_" gradientUnits="userSpaceOnUse" x1="163.9088" y1="52.2744" x2="166.3524" y2="64.8454">
			<stop  offset="0" style="stop-color:#000000;stop-opacity:0.3"/>
			<stop  offset="0.0889" style="stop-color:#000000;stop-opacity:0.2576"/>
			<stop  offset="0.6291" style="stop-color:#000000;stop-opacity:0"/>
		</linearGradient>
		<path class="st6" d="M131.43,58.88c0.12,0.61,0.18,1.24,0.21,1.88l67.4-2.27c-3.38-3.9-7.05-7.55-10.97-10.91L131.43,58.88z"/>
	</g>
	<g>
		<linearGradient id="SVGID_7_" gradientUnits="userSpaceOnUse" x1="177.7892" y1="74.4967" x2="174.4849" y2="87.7498">
			<stop  offset="0" style="stop-color:#000000;stop-opacity:0.3"/>
			<stop  offset="0.0889" style="stop-color:#000000;stop-opacity:0.2576"/>
			<stop  offset="0.6291" style="stop-color:#000000;stop-opacity:0"/>
		</linearGradient>
		<path class="st7" d="M215.26,83.84l-83.93-20c-0.12,0.48-0.26,0.96-0.44,1.42l89.9,34.05C219.35,93.96,217.5,88.8,215.26,83.84z"
			/>
		<linearGradient id="SVGID_8_" gradientUnits="userSpaceOnUse" x1="175.7256" y1="82.4576" x2="180.3406" y2="70.435">
			<stop  offset="0" style="stop-color:#000000;stop-opacity:0.3"/>
			<stop  offset="0.0889" style="stop-color:#000000;stop-opacity:0.2576"/>
			<stop  offset="0.6291" style="stop-color:#000000;stop-opacity:0"/>
		</linearGradient>
		<path class="st8" d="M215.26,83.84l-83.93-20c-0.12,0.48-0.26,0.96-0.44,1.42l89.9,34.05C219.35,93.96,217.5,88.8,215.26,83.84z"
			/>
	</g>
	<g>
		<linearGradient id="SVGID_9_" gradientUnits="userSpaceOnUse" x1="174.5286" y1="111.3151" x2="185.3685" y2="99.2763">
			<stop  offset="0" style="stop-color:#000000;stop-opacity:0.3"/>
			<stop  offset="0.0889" style="stop-color:#000000;stop-opacity:0.2576"/>
			<stop  offset="0.6291" style="stop-color:#000000;stop-opacity:0"/>
		</linearGradient>
		<path class="st9" d="M128.63,68.95l92.38,84.22c1.61-6.12,2.68-12.46,3.15-18.96l-94.6-66.4
			C129.27,68.2,128.96,68.58,128.63,68.95z"/>
		<linearGradient id="SVGID_10_" gradientUnits="userSpaceOnUse" x1="180.246" y1="103.2998" x2="170.2274" y2="117.6079">
			<stop  offset="0" style="stop-color:#000000;stop-opacity:0.3"/>
			<stop  offset="0.0889" style="stop-color:#000000;stop-opacity:0.2576"/>
			<stop  offset="0.6291" style="stop-color:#000000;stop-opacity:0"/>
		</linearGradient>
		<path class="st10" d="M128.63,68.95l92.38,84.22c1.61-6.12,2.68-12.46,3.15-18.96l-94.6-66.4
			C129.27,68.2,128.96,68.58,128.63,68.95z"/>
	</g>
	<g>
		<linearGradient id="SVGID_11_" gradientUnits="userSpaceOnUse" x1="158.9583" y1="136.2988" x2="175.2451" y2="127.6389">
			<stop  offset="0" style="stop-color:#000000;stop-opacity:0.3"/>
			<stop  offset="0.0889" style="stop-color:#000000;stop-opacity:0.2576"/>
			<stop  offset="0.6291" style="stop-color:#000000;stop-opacity:0"/>
		</linearGradient>
		<path class="st11" d="M126.66,70.68c-0.39,0.27-0.79,0.51-1.21,0.73l67.83,129.44c4.73-4.65,9.02-9.75,12.8-15.22L126.66,70.68z"
			/>
		<linearGradient id="SVGID_12_" gradientUnits="userSpaceOnUse" x1="168.1669" y1="129.9631" x2="151.7132" y2="141.4841">
			<stop  offset="0" style="stop-color:#000000;stop-opacity:0.3"/>
			<stop  offset="0.0889" style="stop-color:#000000;stop-opacity:0.2576"/>
			<stop  offset="0.6291" style="stop-color:#000000;stop-opacity:0"/>
		</linearGradient>
		<path class="st12" d="M126.66,70.68c-0.39,0.27-0.79,0.51-1.21,0.73l67.83,129.44c4.73-4.65,9.02-9.75,12.8-15.22L126.66,70.68z"
			/>
	</g>
	<g>
		<linearGradient id="SVGID_13_" gradientUnits="userSpaceOnUse" x1="144.6141" y1="147.0013" x2="120.0897" y2="154.0335">
			<stop  offset="0" style="stop-color:#000000;stop-opacity:0.3"/>
			<stop  offset="0.0889" style="stop-color:#000000;stop-opacity:0.2576"/>
			<stop  offset="0.6291" style="stop-color:#000000;stop-opacity:0"/>
		</linearGradient>
		<path class="st13" d="M123.19,72.3c-0.54,0.15-1.09,0.26-1.65,0.33l19.93,155.96c8.16-1.7,15.96-4.35,23.3-7.82L123.19,72.3z"/>
		<linearGradient id="SVGID_14_" gradientUnits="userSpaceOnUse" x1="130.5216" y1="150.6993" x2="154.4487" y2="147.3365">
			<stop  offset="0" style="stop-color:#000000;stop-opacity:0.3"/>
			<stop  offset="0.0889" style="stop-color:#000000;stop-opacity:0.2576"/>
			<stop  offset="0.6291" style="stop-color:#000000;stop-opacity:0"/>
		</linearGradient>
		<path class="st14" d="M123.19,72.3c-0.54,0.15-1.09,0.26-1.65,0.33l19.93,155.96c8.16-1.7,15.96-4.35,23.3-7.82L123.19,72.3z"/>
	</g>
	<g>
		
			<linearGradient id="SVGID_15_" gradientUnits="userSpaceOnUse" x1="142.0047" y1="38.4388" x2="151.2309" y2="47.3485" gradientTransform="matrix(-1 0 0 1 240.1428 0)">
			<stop  offset="0" style="stop-color:#000000;stop-opacity:0.3"/>
			<stop  offset="0.0889" style="stop-color:#000000;stop-opacity:0.2576"/>
			<stop  offset="0.6291" style="stop-color:#000000;stop-opacity:0"/>
		</linearGradient>
		<path class="st15" d="M74.79,32.72c4.14-1.99,8.43-3.71,12.85-5.15l24.39,25.25c-0.67,0.65-1.26,1.38-1.76,2.17L74.79,32.72z"/>
		
			<linearGradient id="SVGID_16_" gradientUnits="userSpaceOnUse" x1="147.6691" y1="44.2076" x2="141.5037" y2="34.7138" gradientTransform="matrix(-1 0 0 1 240.1428 0)">
			<stop  offset="0" style="stop-color:#000000;stop-opacity:0.3"/>
			<stop  offset="0.0889" style="stop-color:#000000;stop-opacity:0.2576"/>
			<stop  offset="0.6291" style="stop-color:#000000;stop-opacity:0"/>
		</linearGradient>
		<path class="st16" d="M74.79,32.72c4.14-1.99,8.43-3.71,12.85-5.15l24.39,25.25c-0.67,0.65-1.26,1.38-1.76,2.17L74.79,32.72z"/>
	</g>
	<g>
		
			<linearGradient id="SVGID_17_" gradientUnits="userSpaceOnUse" x1="165.3176" y1="60.2594" x2="164.7172" y2="48.8023" gradientTransform="matrix(-1 0 0 1 240.1428 0)">
			<stop  offset="0" style="stop-color:#000000;stop-opacity:0.3"/>
			<stop  offset="0.0889" style="stop-color:#000000;stop-opacity:0.2576"/>
			<stop  offset="0.6291" style="stop-color:#000000;stop-opacity:0"/>
		</linearGradient>
		<path class="st17" d="M108.71,58.88c-0.12,0.61-0.18,1.24-0.21,1.88l-67.4-2.27c3.38-3.9,7.05-7.55,10.97-10.91L108.71,58.88z"/>
		
			<linearGradient id="SVGID_18_" gradientUnits="userSpaceOnUse" x1="163.9088" y1="52.2744" x2="166.3524" y2="64.8454" gradientTransform="matrix(-1 0 0 1 240.1428 0)">
			<stop  offset="0" style="stop-color:#000000;stop-opacity:0.3"/>
			<stop  offset="0.0889" style="stop-color:#000000;stop-opacity:0.2576"/>
			<stop  offset="0.6291" style="stop-color:#000000;stop-opacity:0"/>
		</linearGradient>
		<path class="st18" d="M108.71,58.88c-0.12,0.61-0.18,1.24-0.21,1.88l-67.4-2.27c3.38-3.9,7.05-7.55,10.97-10.91L108.71,58.88z"/>
	</g>
	<g>
		
			<linearGradient id="SVGID_19_" gradientUnits="userSpaceOnUse" x1="177.7892" y1="74.4967" x2="174.4849" y2="87.7498" gradientTransform="matrix(-1 0 0 1 240.1428 0)">
			<stop  offset="0" style="stop-color:#000000;stop-opacity:0.3"/>
			<stop  offset="0.0889" style="stop-color:#000000;stop-opacity:0.2576"/>
			<stop  offset="0.6291" style="stop-color:#000000;stop-opacity:0"/>
		</linearGradient>
		<path class="st19" d="M24.88,83.84l83.93-20c0.12,0.48,0.26,0.96,0.44,1.42L19.34,99.3C20.79,93.96,22.64,88.8,24.88,83.84z"/>
		
			<linearGradient id="SVGID_20_" gradientUnits="userSpaceOnUse" x1="175.7256" y1="82.4576" x2="180.3406" y2="70.435" gradientTransform="matrix(-1 0 0 1 240.1428 0)">
			<stop  offset="0" style="stop-color:#000000;stop-opacity:0.3"/>
			<stop  offset="0.0889" style="stop-color:#000000;stop-opacity:0.2576"/>
			<stop  offset="0.6291" style="stop-color:#000000;stop-opacity:0"/>
		</linearGradient>
		<path class="st20" d="M24.88,83.84l83.93-20c0.12,0.48,0.26,0.96,0.44,1.42L19.34,99.3C20.79,93.96,22.64,88.8,24.88,83.84z"/>
	</g>
	<g>
		
			<linearGradient id="SVGID_21_" gradientUnits="userSpaceOnUse" x1="174.5286" y1="111.3151" x2="185.3685" y2="99.2763" gradientTransform="matrix(-1 0 0 1 240.1428 0)">
			<stop  offset="0" style="stop-color:#000000;stop-opacity:0.3"/>
			<stop  offset="0.0889" style="stop-color:#000000;stop-opacity:0.2576"/>
			<stop  offset="0.6291" style="stop-color:#000000;stop-opacity:0"/>
		</linearGradient>
		<path class="st21" d="M111.52,68.95l-92.38,84.22c-1.61-6.12-2.68-12.46-3.15-18.96l94.6-66.4
			C110.88,68.2,111.19,68.58,111.52,68.95z"/>
		
			<linearGradient id="SVGID_22_" gradientUnits="userSpaceOnUse" x1="180.246" y1="103.2998" x2="170.2274" y2="117.6079" gradientTransform="matrix(-1 0 0 1 240.1428 0)">
			<stop  offset="0" style="stop-color:#000000;stop-opacity:0.3"/>
			<stop  offset="0.0889" style="stop-color:#000000;stop-opacity:0.2576"/>
			<stop  offset="0.6291" style="stop-color:#000000;stop-opacity:0"/>
		</linearGradient>
		<path class="st22" d="M111.52,68.95l-92.38,84.22c-1.61-6.12-2.68-12.46-3.15-18.96l94.6-66.4
			C110.88,68.2,111.19,68.58,111.52,68.95z"/>
	</g>
	<g>
		
			<linearGradient id="SVGID_23_" gradientUnits="userSpaceOnUse" x1="158.9583" y1="136.2988" x2="175.2451" y2="127.6389" gradientTransform="matrix(-1 0 0 1 240.1428 0)">
			<stop  offset="0" style="stop-color:#000000;stop-opacity:0.3"/>
			<stop  offset="0.0889" style="stop-color:#000000;stop-opacity:0.2576"/>
			<stop  offset="0.6291" style="stop-color:#000000;stop-opacity:0"/>
		</linearGradient>
		<path class="st23" d="M113.49,70.68c0.39,0.27,0.79,0.51,1.21,0.73L46.86,200.85c-4.73-4.65-9.02-9.75-12.8-15.22L113.49,70.68z"
			/>
		
			<linearGradient id="SVGID_24_" gradientUnits="userSpaceOnUse" x1="168.1669" y1="129.9631" x2="151.7132" y2="141.4841" gradientTransform="matrix(-1 0 0 1 240.1428 0)">
			<stop  offset="0" style="stop-color:#000000;stop-opacity:0.3"/>
			<stop  offset="0.0889" style="stop-color:#000000;stop-opacity:0.2576"/>
			<stop  offset="0.6291" style="stop-color:#000000;stop-opacity:0"/>
		</linearGradient>
		<path class="st24" d="M113.49,70.68c0.39,0.27,0.79,0.51,1.21,0.73L46.86,200.85c-4.73-4.65-9.02-9.75-12.8-15.22L113.49,70.68z"
			/>
	</g>
	<g>
		
			<linearGradient id="SVGID_25_" gradientUnits="userSpaceOnUse" x1="144.6141" y1="147.0013" x2="120.0897" y2="154.0335" gradientTransform="matrix(-1 0 0 1 240.1428 0)">
			<stop  offset="0" style="stop-color:#000000;stop-opacity:0.3"/>
			<stop  offset="0.0889" style="stop-color:#000000;stop-opacity:0.2576"/>
			<stop  offset="0.6291" style="stop-color:#000000;stop-opacity:0"/>
		</linearGradient>
		<path class="st25" d="M116.95,72.3c0.54,0.15,1.09,0.26,1.65,0.33L98.67,228.59c-8.16-1.7-15.96-4.35-23.3-7.82L116.95,72.3z"/>
		
			<linearGradient id="SVGID_26_" gradientUnits="userSpaceOnUse" x1="130.5216" y1="150.6993" x2="154.4487" y2="147.3365" gradientTransform="matrix(-1 0 0 1 240.1428 0)">
			<stop  offset="0" style="stop-color:#000000;stop-opacity:0.3"/>
			<stop  offset="0.0889" style="stop-color:#000000;stop-opacity:0.2576"/>
			<stop  offset="0.6291" style="stop-color:#000000;stop-opacity:0"/>
		</linearGradient>
		<path class="st26" d="M116.95,72.3c0.54,0.15,1.09,0.26,1.65,0.33L98.67,228.59c-8.16-1.7-15.96-4.35-23.3-7.82L116.95,72.3z"/>
	</g>
</g>
<g id="Sun" class="st27">
	<circle id="Sun_1_" class="st28" cx="120.07" cy="61.15" r="11.59"/>
	<g id="Rays">
		<polygon class="st28" points="120.07,61.15 73.8,226.4 54.51,223.62 44.01,206.29 		"/>
		<polygon class="st28" points="120.07,61.15 30.72,190.46 13.36,178.27 15.29,156.67 		"/>
		<polygon class="st28" points="120.07,61.15 142.13,233.78 120.07,242.34 98.01,233.78 		"/>
		<polygon class="st28" points="120.07,61.15 11.86,137.1 5.43,119.98 14.43,101.16 		"/>
		<polygon class="st28" points="120.07,61.15 20.43,84.9 23.43,67.57 37.57,58.37 		"/>
		<polygon class="st28" points="120.07,61.15 48.28,46.82 57.28,35.27 72.71,31.42 		"/>
		<polygon class="st28" points="120.07,61.15 85.57,25.43 98.43,18.15 113,19.86 		"/>
		<polygon class="st28" points="120.07,61.15 166.35,226.4 185.63,223.62 196.13,206.29 		"/>
		<polygon class="st28" points="120.07,61.15 209.42,190.46 226.78,178.27 224.85,156.67 		"/>
		<polygon class="st28" points="120.07,61.15 228.28,137.1 234.71,119.98 225.71,101.16 		"/>
		<polygon class="st28" points="120.07,61.15 219.71,84.9 216.71,67.57 202.57,58.37 		"/>
		<polygon class="st28" points="120.07,61.15 191.86,46.82 182.86,35.27 167.43,31.42 		"/>
		<polygon class="st28" points="120.07,61.15 154.57,25.43 141.72,18.15 127.15,19.86 		"/>
	</g>
</g>
<path id="Delta" class="st29" d="M164.52,167.75c-19.24,72.54-76.44,54.6-90.38,1.39C60.59,117.37,97.5,92.42,97.5,92.42
	s8.13,3.2,17.6,5.86C120.63,99.84,180.91,105.94,164.52,167.75z M182.53,135.03c-5.9-40.36-38.59-45.03-45.99-47.32
	c-13.85-4.29-37.17-2.87-39.48-23c-3.04-26.52,17.16-13.48,30.62-12.44c13.46,1.04,14.65-14.32,14.65-14.32s-3.21,8.12-30.42,1.51
	C84.7,32.86,81.46,55.14,81.24,60.91C80.59,77.6,91.38,85.57,92.52,90.1c0.49,1.97-37.47,9.34-34.24,59.15
	c3.24,49.81,33.89,70.2,57.66,71.39C139.7,221.83,192.12,202.71,182.53,135.03z"/>
</svg>
