<svg version="1.1" id="Layer_1" xmlns="http://www.w3.org/2000/svg" xmlns:xlink="http://www.w3.org/1999/xlink" x="0px" y="0px"
	 width="100%" viewBox="0 0 1224 1224" enable-background="new 0 0 1224 1224" xml:space="preserve">
<path fill="#FFFFFF" opacity="1.000000" stroke="none" 
	d="
M353.000000,1.000006 
	C643.642456,1.000000 934.284912,1.000000 1224.963623,1.000000 
	C1224.963623,408.941772 1224.963623,816.883545 1224.963623,1224.912598 
	C817.092224,1224.912598 409.184448,1224.912598 1.138324,1224.912598 
	C1.138324,817.000000 1.138324,409.000031 1.138324,1.000000 
	C109.445129,1.000000 217.768936,1.000000 326.289856,1.291197 
	C317.211304,3.068247 307.884918,4.829587 301.387360,12.342326 
	C296.073395,18.486574 291.226837,25.082417 286.631317,31.791941 
	C271.909546,53.285892 260.209991,76.418640 249.815231,100.268066 
	C236.042419,131.867981 224.105026,164.165176 215.123734,197.407288 
	C203.263779,241.304184 192.112030,285.403229 181.398972,329.595490 
	C173.937057,360.376556 167.380188,391.390198 161.049576,422.428558 
	C154.723450,453.444855 148.925613,484.575623 143.387863,515.743530 
	C139.793533,535.973450 136.947037,556.340576 134.015121,576.682251 
	C131.745316,592.430481 129.758652,608.221863 127.836075,624.017151 
	C125.793495,640.798218 123.755615,657.585266 122.125771,674.409485 
	C120.749847,688.612610 119.816971,702.863831 118.944695,717.109436 
	C117.554688,739.810364 115.746017,762.511353 115.283554,785.236206 
	C114.792755,809.354065 115.367409,833.507996 116.041908,857.630432 
	C116.533615,875.216064 117.396523,892.828491 119.081230,910.333984 
	C121.144119,931.769348 123.781868,953.174072 126.984406,974.469666 
	C132.830521,1013.343872 142.623352,1051.252319 157.124435,1087.840210 
	C173.984848,1130.381104 196.373260,1169.329956 231.387436,1199.856934 
	C241.975159,1209.087769 253.471603,1217.005005 266.449402,1222.499878 
	C268.638367,1223.426758 271.867340,1223.761597 273.929779,1222.837891 
	C297.763397,1212.164673 321.789917,1201.843994 345.116425,1190.136963 
	C372.472626,1176.407837 399.365631,1161.722900 426.146027,1146.886597 
	C476.956360,1118.737671 526.220398,1088.003662 574.678894,1056.013184 
	C607.160645,1034.570068 639.348328,1012.661194 671.232666,990.339539 
	C704.465149,967.074097 737.591492,943.616333 770.017578,919.249023 
	C819.444824,882.106079 868.482361,844.431763 917.203430,806.366150 
	C953.080139,778.335815 988.402039,749.581665 1023.566895,720.658447 
	C1050.901001,698.175842 1077.607666,674.930420 1104.602051,652.034424 
	C1110.195190,647.290344 1110.193115,647.329285 1105.184814,641.787903 
	C1086.567261,621.188843 1068.053345,600.495239 1049.330811,579.992126 
	C1029.593018,558.377136 1009.735291,536.870178 989.790344,515.446045 
	C973.352478,497.789032 956.819214,480.217896 940.131653,462.797028 
	C919.747986,441.517700 899.453247,420.139862 878.591248,399.334930 
	C845.338013,366.172577 811.719055,333.375275 778.109314,300.572693 
	C763.699463,286.508911 749.165222,272.554199 734.260315,259.020325 
	C710.634827,237.567947 686.810730,216.327164 662.764038,195.348328 
	C645.613403,180.385757 628.283936,165.590759 610.449646,151.458740 
	C587.398743,133.193069 564.030518,115.301109 540.320984,97.899452 
	C503.922943,71.185005 466.073364,46.715511 425.276886,27.110439 
	C402.747040,16.283533 379.690918,6.927705 354.818207,2.851156 
	C354.129486,2.738279 353.602417,1.639212 353.000000,1.000006 
z"/>
<path fill="#C5C5C4" opacity="1.000000" stroke="none" 
	d="
M352.666687,1.000006 
	C353.602417,1.639212 354.129486,2.738279 354.818207,2.851156 
	C379.690918,6.927705 402.747040,16.283533 425.276886,27.110439 
	C466.073364,46.715511 503.922943,71.185005 540.320984,97.899452 
	C564.030518,115.301109 587.398743,133.193069 610.449646,151.458740 
	C628.283936,165.590759 645.613403,180.385757 662.764038,195.348328 
	C686.810730,216.327164 710.634827,237.567947 734.260315,259.020325 
	C749.165222,272.554199 763.699463,286.508911 778.109314,300.572693 
	C811.719055,333.375275 845.338013,366.172577 878.591248,399.334930 
	C899.453247,420.139862 919.747986,441.517700 940.131653,462.797028 
	C956.819214,480.217896 973.352478,497.789032 989.790344,515.446045 
	C1009.735291,536.870178 1029.593018,558.377136 1049.330811,579.992126 
	C1068.053345,600.495239 1086.567261,621.188843 1105.184814,641.787903 
	C1110.193115,647.329285 1110.195190,647.290344 1104.602051,652.034424 
	C1077.607666,674.930420 1050.901001,698.175842 1023.566895,720.658447 
	C988.402039,749.581665 953.080139,778.335815 917.203430,806.366150 
	C868.482361,844.431763 819.444824,882.106079 770.017578,919.249023 
	C737.591492,943.616333 704.465149,967.074097 671.232666,990.339539 
	C639.348328,1012.661194 607.160645,1034.570068 574.678894,1056.013184 
	C526.220398,1088.003662 476.956360,1118.737671 426.146027,1146.886597 
	C399.365631,1161.722900 372.472626,1176.407837 345.116425,1190.136963 
	C321.789917,1201.843994 297.763397,1212.164673 273.929779,1222.837891 
	C271.867340,1223.761597 268.638367,1223.426758 266.449402,1222.499878 
	C253.471603,1217.005005 241.975159,1209.087769 231.387436,1199.856934 
	C196.373260,1169.329956 173.984848,1130.381104 157.124435,1087.840210 
	C142.623352,1051.252319 132.830521,1013.343872 126.984406,974.469666 
	C123.781868,953.174072 121.144119,931.769348 119.081230,910.333984 
	C117.396523,892.828491 116.533615,875.216064 116.041908,857.630432 
	C115.367409,833.507996 114.792755,809.354065 115.283554,785.236206 
	C115.746017,762.511353 117.554688,739.810364 118.944695,717.109436 
	C119.816971,702.863831 120.749847,688.612610 122.125771,674.409485 
	C123.755615,657.585266 125.793495,640.798218 127.836075,624.017151 
	C129.758652,608.221863 131.745316,592.430481 134.015121,576.682251 
	C136.947037,556.340576 139.793533,535.973450 143.387863,515.743530 
	C148.925613,484.575623 154.723450,453.444855 161.049576,422.428558 
	C167.380188,391.390198 173.937057,360.376556 181.398972,329.595490 
	C192.112030,285.403229 203.263779,241.304184 215.123734,197.407288 
	C224.105026,164.165176 236.042419,131.867981 249.815231,100.268066 
	C260.209991,76.418640 271.909546,53.285892 286.631317,31.791941 
	C291.226837,25.082417 296.073395,18.486574 301.387360,12.342326 
	C307.884918,4.829587 317.211304,3.068247 326.743469,1.291197 
	C332.688049,1.000000 338.376068,1.000000 344.773254,1.281203 
	C347.321564,1.374937 349.160797,1.187468 351.000000,1.000000 
	C351.444458,1.000000 351.888885,1.000000 352.666687,1.000006 
M207.802490,850.642639 
	C217.403015,868.990234 231.912186,883.190308 247.321182,896.449463 
	C268.680145,914.828430 291.969849,930.486389 316.502014,944.389038 
	C354.343079,965.833984 394.187469,982.267761 436.334747,992.945251 
	C457.742981,998.368713 479.499725,1001.691223 501.603363,1003.263733 
	C516.977966,1004.357422 532.192871,1004.162292 547.274597,1001.578430 
	C569.707520,997.734985 590.808960,989.591614 611.266357,979.810852 
	C646.847107,962.799377 679.448120,940.972473 710.954651,917.449097 
	C752.304993,886.576233 791.209778,852.757568 828.201477,816.868469 
	C857.948792,788.007935 886.241577,757.651611 915.354736,728.131653 
	C922.926880,720.453796 928.642700,712.464661 925.746033,700.957275 
	C921.982056,686.004456 919.112915,670.761963 914.345215,656.137512 
	C894.919556,596.550476 869.062805,539.591370 841.450256,483.466370 
	C824.631653,449.281128 806.645508,415.646820 788.376282,382.206238 
	C774.268982,356.383484 759.331726,330.960876 740.870117,307.883026 
	C735.010498,300.558258 729.493896,292.165619 718.567566,292.134979 
	C710.269836,292.111694 701.873108,292.103455 693.689819,293.273529 
	C670.393127,296.604462 646.995178,299.638031 623.977417,304.425079 
	C573.645874,314.892548 523.373230,325.734039 473.361603,337.622131 
	C426.380280,348.789856 379.600403,360.900085 333.041870,373.721283 
	C296.073059,383.901642 259.687286,396.183197 222.815002,406.736603 
	C204.798233,411.893341 195.711121,423.315826 191.796677,441.059235 
	C186.941040,463.068939 184.727615,485.325226 184.186783,507.701569 
	C183.028412,555.628479 184.263062,603.538269 187.108734,651.399170 
	C187.739349,662.005737 188.363251,672.614685 189.184158,683.207520 
	C190.363297,698.422302 191.740280,713.621765 192.995316,728.830811 
	C194.087097,742.061279 195.025452,755.305115 196.215103,768.526489 
	C197.730896,785.372437 199.287994,802.217224 201.104614,819.032532 
	C202.238251,829.525879 201.801300,840.393860 207.802490,850.642639 
z"/>
<path fill="#FFFFFF" opacity="1.000000" stroke="none" 
	d="
M350.571533,1.000000 
	C349.160797,1.187468 347.321564,1.374937 345.241180,1.281203 
	C346.714355,1.000000 348.428711,1.000000 350.571533,1.000000 
z"/>
<path fill="#FFFFFE" opacity="1.000000" stroke="none" 
	d="
M207.622314,850.313477 
	C201.801300,840.393860 202.238251,829.525879 201.104614,819.032532 
	C199.287994,802.217224 197.730896,785.372437 196.215103,768.526489 
	C195.025452,755.305115 194.087097,742.061279 192.995316,728.830811 
	C191.740280,713.621765 190.363297,698.422302 189.184158,683.207520 
	C188.363251,672.614685 187.739349,662.005737 187.108734,651.399170 
	C184.263062,603.538269 183.028412,555.628479 184.186783,507.701569 
	C184.727615,485.325226 186.941040,463.068939 191.796677,441.059235 
	C195.711121,423.315826 204.798233,411.893341 222.815002,406.736603 
	C259.687286,396.183197 296.073059,383.901642 333.041870,373.721283 
	C379.600403,360.900085 426.380280,348.789856 473.361603,337.622131 
	C523.373230,325.734039 573.645874,314.892548 623.977417,304.425079 
	C646.995178,299.638031 670.393127,296.604462 693.689819,293.273529 
	C701.873108,292.103455 710.269836,292.111694 718.567566,292.134979 
	C729.493896,292.165619 735.010498,300.558258 740.870117,307.883026 
	C759.331726,330.960876 774.268982,356.383484 788.376282,382.206238 
	C806.645508,415.646820 824.631653,449.281128 841.450256,483.466370 
	C869.062805,539.591370 894.919556,596.550476 914.345215,656.137512 
	C919.112915,670.761963 921.982056,686.004456 925.746033,700.957275 
	C928.642700,712.464661 922.926880,720.453796 915.354736,728.131653 
	C886.241577,757.651611 857.948792,788.007935 828.201477,816.868469 
	C791.209778,852.757568 752.304993,886.576233 710.954651,917.449097 
	C679.448120,940.972473 646.847107,962.799377 611.266357,979.810852 
	C590.808960,989.591614 569.707520,997.734985 547.274597,1001.578430 
	C532.192871,1004.162292 516.977966,1004.357422 501.603363,1003.263733 
	C479.499725,1001.691223 457.742981,998.368713 436.334747,992.945251 
	C394.187469,982.267761 354.343079,965.833984 316.502014,944.389038 
	C291.969849,930.486389 268.680145,914.828430 247.321182,896.449463 
	C231.912186,883.190308 217.403015,868.990234 207.622314,850.313477 
M264.216156,767.508606 
	C264.216156,792.429749 264.216156,817.350891 264.216156,842.692017 
	C294.133972,842.692017 323.799652,842.692017 353.883484,842.692017 
	C353.883484,812.744263 353.883484,783.206848 353.883484,753.183594 
	C323.991425,753.183594 294.421814,753.183594 264.216614,753.183594 
	C264.216614,757.617432 264.216614,762.064575 264.216156,767.508606 
M264.000000,603.500000 
	C264.000000,610.434326 264.000000,617.368652 264.000000,624.591492 
	C294.168640,624.591492 323.836761,624.591492 353.889404,624.591492 
	C353.889404,594.658936 353.889404,565.134949 353.889404,535.154663 
	C323.912506,535.154663 294.346161,535.154663 264.000000,535.154663 
	C264.000000,557.627319 264.000000,580.063660 264.000000,603.500000 
M276.134125,733.321045 
	C277.953461,733.475037 279.771912,733.750854 281.592255,733.764099 
	C300.895081,733.904724 320.198212,734.008484 339.501312,734.110229 
	C344.105469,734.134460 348.709869,734.113831 353.799072,734.113831 
	C353.799072,703.816406 353.799072,674.134705 353.799072,644.229553 
	C324.013550,644.229553 294.330780,644.229553 264.308380,644.229553 
	C264.308380,674.069031 264.308380,703.564880 264.308380,733.304626 
	C268.218231,733.304626 271.707123,733.304626 276.134125,733.321045 
M373.000000,580.499512 
	C373.000000,595.095276 373.000000,609.690979 373.000000,624.635132 
	C403.002625,624.635132 432.522766,624.635132 462.578796,624.635132 
	C462.578796,594.729187 462.578796,565.187378 462.578796,535.170166 
	C433.041473,535.170166 403.659973,535.170166 373.000000,535.170166 
	C373.000000,549.991272 373.000000,564.745239 373.000000,580.499512 
M373.215973,777.507324 
	C373.215973,799.096924 373.215973,820.686523 373.215973,842.694214 
	C402.995209,842.694214 432.517761,842.694214 462.577759,842.694214 
	C462.577759,812.794128 462.577759,783.239868 462.577759,753.190308 
	C432.965668,753.190308 403.459503,753.190308 373.216187,753.190308 
	C373.216187,761.223694 373.216187,768.867676 373.215973,777.507324 
M599.563477,842.783203 
	C626.613525,842.783203 653.663635,842.783203 680.978943,842.783203 
	C680.978943,812.834656 680.978943,783.285706 680.978943,753.218018 
	C651.146973,753.218018 621.635864,753.218018 591.504272,753.218018 
	C591.504272,783.100342 591.504272,812.762878 591.504272,842.783020 
	C593.975586,842.783020 596.281921,842.783020 599.563477,842.783203 
M681.114197,557.500000 
	C681.114197,550.239563 681.114197,542.979187 681.114197,535.212219 
	C651.138062,535.212219 621.632812,535.212219 591.505371,535.212219 
	C591.505371,565.050964 591.505371,594.718628 591.505371,624.670837 
	C621.312317,624.670837 651.002747,624.670837 681.114258,624.670837 
	C681.114258,602.395386 681.114258,580.447693 681.114197,557.500000 
M304.500000,425.886108 
	C291.243713,425.886108 277.987427,425.886108 264.311157,425.886108 
	C264.311157,455.867279 264.311157,485.390503 264.311157,515.514404 
	C294.108582,515.514404 323.655060,515.514404 353.752899,515.514404 
	C353.752899,485.923279 353.752899,456.228912 353.752899,425.886017 
	C337.705963,425.886017 321.602997,425.886017 304.500000,425.886108 
M527.507019,425.698120 
	C512.757751,425.698120 498.008514,425.698120 482.629395,425.698120 
	C482.629395,455.332550 482.629395,485.054291 482.629395,515.447144 
	C512.161865,515.447144 541.812744,515.447144 571.884583,515.447144 
	C571.884583,485.702728 571.884583,456.125122 571.884583,425.697845 
	C557.389160,425.697845 542.947021,425.697845 527.507019,425.698120 
M373.000763,481.500000 
	C373.000763,492.607361 373.000763,503.714752 373.000763,515.464905 
	C403.175385,515.464905 432.872498,515.464905 462.808472,515.464905 
	C462.808472,485.822388 462.808472,456.109985 462.808472,426.145630 
	C432.984955,426.145630 403.467316,426.145630 373.000763,426.145630 
	C373.000763,444.560333 373.000763,462.530151 373.000763,481.500000 
M372.885712,719.493347 
	C372.885712,723.942261 372.885712,728.391113 372.885712,733.470520 
	C403.003448,733.470520 432.523956,733.470520 462.581543,733.470520 
	C462.581543,703.717224 462.581543,674.122864 462.581543,644.240967 
	C433.099701,644.240967 403.554321,644.240967 372.885651,644.240967 
	C372.885651,669.227539 372.885651,693.861816 372.885712,719.493347 
M680.977539,732.264343 
	C680.977539,703.002319 680.977539,673.740234 680.977539,644.225586 
	C651.184448,644.225586 621.634277,644.225586 591.485474,644.225586 
	C591.485474,673.960022 591.485474,703.356934 591.485474,733.037415 
	C597.016846,733.283386 602.621582,733.706055 608.229431,733.751587 
	C630.883240,733.935425 653.537903,734.021118 676.192505,734.073975 
	C677.747498,734.077576 679.303772,733.515076 680.977539,732.264343 
M507.498138,842.997192 
	C528.752930,842.997192 550.007690,842.997192 571.780151,842.997192 
	C571.780151,812.896790 571.780151,783.246887 571.780151,753.146851 
	C542.088013,753.146851 512.721863,753.146851 482.677063,753.146851 
	C482.677063,783.003052 482.677063,812.676697 482.677063,842.982971 
	C490.588379,842.982971 498.543060,842.982971 507.498138,842.997192 
M494.515320,624.783875 
	C520.098145,624.783875 545.680969,624.783875 571.781982,624.783875 
	C571.781982,594.930969 571.781982,565.387695 571.781982,535.269775 
	C542.312805,535.269775 512.814331,535.269775 482.656067,535.269775 
	C482.656067,564.995850 482.656067,594.674561 482.656067,624.783691 
	C486.262054,624.783691 489.893005,624.783691 494.515320,624.783875 
M700.216125,607.499939 
	C700.216125,613.103699 700.216125,618.707520 700.216125,624.652954 
	C730.287048,624.652954 759.993286,624.652954 790.241821,624.652954 
	C790.241821,594.790894 790.241821,565.245667 790.241821,535.197998 
	C760.497009,535.197998 730.941162,535.197998 700.216248,535.197998 
	C700.216248,558.949036 700.216248,582.724731 700.216125,607.499939 
M700.000305,838.300171 
	C700.114746,839.717468 700.229248,841.134766 700.364624,842.811462 
	C730.402649,842.811462 759.981873,842.811462 790.172363,842.811462 
	C790.172363,812.878601 790.172363,783.206848 790.172363,753.115417 
	C760.326477,753.115417 730.777771,753.115417 700.000183,753.115417 
	C700.000183,781.430237 700.000183,809.384521 700.000305,838.300171 
M681.113586,493.500732 
	C681.113586,471.099457 681.113586,448.698151 681.113586,426.002533 
	C651.087769,426.002533 621.671936,426.002533 591.571289,426.002533 
	C591.571289,455.835632 591.571289,485.368561 591.571289,515.509766 
	C621.261597,515.509766 650.967773,515.509766 681.113586,515.509766 
	C681.113586,508.449677 681.113586,501.475311 681.113586,493.500732 
M482.886749,647.645020 
	C482.886749,676.062073 482.886749,704.479126 482.886749,733.505859 
	C512.147766,733.505859 541.699402,733.505859 571.778015,733.505859 
	C571.778015,703.849426 571.778015,674.146423 571.778015,644.000366 
	C564.227600,644.000366 556.764709,644.010254 549.301758,643.998474 
	C528.644043,643.966003 507.986298,643.906433 487.328552,643.916077 
	C485.405823,643.916992 482.597656,642.923828 482.886749,647.645020 
M790.783569,650.395874 
	C790.783569,648.628235 790.783569,646.860535 790.783569,644.492310 
	C760.507935,644.492310 730.935730,644.492310 700.679688,644.492310 
	C700.679688,673.977539 700.679688,703.509155 700.679688,733.579834 
	C730.319641,733.579834 759.909180,733.579834 790.000000,733.579834 
	C790.000000,731.679138 789.982788,729.718872 790.002563,727.758972 
	C790.259216,702.274475 790.521240,676.789978 790.783569,650.395874 
M787.303772,516.109131 
	C791.119690,516.357788 789.948669,513.469421 789.961243,511.610352 
	C790.119812,488.127075 790.204041,464.643341 790.298218,441.159698 
	C790.317993,436.236572 790.301086,431.313324 790.301086,426.045776 
	C760.575928,426.045776 731.009155,426.045776 700.720947,426.045776 
	C700.720947,455.759430 700.720947,485.294006 700.720947,516.113342 
	C729.145203,516.113342 757.739929,516.113342 787.303772,516.109131 
z"/>
<path fill="#EFC910" opacity="1.000000" stroke="none" 
	d="
M264.216370,767.010132 
	C264.216614,762.064575 264.216614,757.617432 264.216614,753.183594 
	C294.421814,753.183594 323.991425,753.183594 353.883484,753.183594 
	C353.883484,783.206848 353.883484,812.744263 353.883484,842.692017 
	C323.799652,842.692017 294.133972,842.692017 264.216156,842.692017 
	C264.216156,817.350891 264.216156,792.429749 264.216370,767.010132 
z"/>
<path fill="#EFC910" opacity="1.000000" stroke="none" 
	d="
M264.000000,603.000000 
	C264.000000,580.063660 264.000000,557.627319 264.000000,535.154663 
	C294.346161,535.154663 323.912506,535.154663 353.889404,535.154663 
	C353.889404,565.134949 353.889404,594.658936 353.889404,624.591492 
	C323.836761,624.591492 294.168640,624.591492 264.000000,624.591492 
	C264.000000,617.368652 264.000000,610.434326 264.000000,603.000000 
z"/>
<path fill="#EFC910" opacity="1.000000" stroke="none" 
	d="
M275.665070,733.312866 
	C271.707123,733.304626 268.218231,733.304626 264.308380,733.304626 
	C264.308380,703.564880 264.308380,674.069031 264.308380,644.229553 
	C294.330780,644.229553 324.013550,644.229553 353.799072,644.229553 
	C353.799072,674.134705 353.799072,703.816406 353.799072,734.113831 
	C348.709869,734.113831 344.105469,734.134460 339.501312,734.110229 
	C320.198212,734.008484 300.895081,733.904724 281.592255,733.764099 
	C279.771912,733.750854 277.953461,733.475037 275.665070,733.312866 
z"/>
<path fill="#EFC910" opacity="1.000000" stroke="none" 
	d="
M373.000000,579.999390 
	C373.000000,564.745239 373.000000,549.991272 373.000000,535.170166 
	C403.659973,535.170166 433.041473,535.170166 462.578796,535.170166 
	C462.578796,565.187378 462.578796,594.729187 462.578796,624.635132 
	C432.522766,624.635132 403.002625,624.635132 373.000000,624.635132 
	C373.000000,609.690979 373.000000,595.095276 373.000000,579.999390 
z"/>
<path fill="#EFC910" opacity="1.000000" stroke="none" 
	d="
M373.216064,777.009460 
	C373.216187,768.867676 373.216187,761.223694 373.216187,753.190308 
	C403.459503,753.190308 432.965668,753.190308 462.577759,753.190308 
	C462.577759,783.239868 462.577759,812.794128 462.577759,842.694214 
	C432.517761,842.694214 402.995209,842.694214 373.215973,842.694214 
	C373.215973,820.686523 373.215973,799.096924 373.216064,777.009460 
z"/>
<path fill="#EFC910" opacity="1.000000" stroke="none" 
	d="
M599.075928,842.783081 
	C596.281921,842.783020 593.975586,842.783020 591.504272,842.783020 
	C591.504272,812.762878 591.504272,783.100342 591.504272,753.218018 
	C621.635864,753.218018 651.146973,753.218018 680.978943,753.218018 
	C680.978943,783.285706 680.978943,812.834656 680.978943,842.783203 
	C653.663635,842.783203 626.613525,842.783203 599.075928,842.783081 
z"/>
<path fill="#EFC910" opacity="1.000000" stroke="none" 
	d="
M681.114258,558.000000 
	C681.114258,580.447693 681.114258,602.395386 681.114258,624.670837 
	C651.002747,624.670837 621.312317,624.670837 591.505371,624.670837 
	C591.505371,594.718628 591.505371,565.050964 591.505371,535.212219 
	C621.632812,535.212219 651.138062,535.212219 681.114197,535.212219 
	C681.114197,542.979187 681.114197,550.239563 681.114258,558.000000 
z"/>
<path fill="#EFC910" opacity="1.000000" stroke="none" 
	d="
M305.000000,425.886047 
	C321.602997,425.886017 337.705963,425.886017 353.752899,425.886017 
	C353.752899,456.228912 353.752899,485.923279 353.752899,515.514404 
	C323.655060,515.514404 294.108582,515.514404 264.311157,515.514404 
	C264.311157,485.390503 264.311157,455.867279 264.311157,425.886108 
	C277.987427,425.886108 291.243713,425.886108 305.000000,425.886047 
z"/>
<path fill="#EFC910" opacity="1.000000" stroke="none" 
	d="
M528.005981,425.697998 
	C542.947021,425.697845 557.389160,425.697845 571.884583,425.697845 
	C571.884583,456.125122 571.884583,485.702728 571.884583,515.447144 
	C541.812744,515.447144 512.161865,515.447144 482.629395,515.447144 
	C482.629395,485.054291 482.629395,455.332550 482.629395,425.698120 
	C498.008514,425.698120 512.757751,425.698120 528.005981,425.697998 
z"/>
<path fill="#EFC910" opacity="1.000000" stroke="none" 
	d="
M373.000763,481.000000 
	C373.000763,462.530151 373.000763,444.560333 373.000763,426.145630 
	C403.467316,426.145630 432.984955,426.145630 462.808472,426.145630 
	C462.808472,456.109985 462.808472,485.822388 462.808472,515.464905 
	C432.872498,515.464905 403.175385,515.464905 373.000763,515.464905 
	C373.000763,503.714752 373.000763,492.607361 373.000763,481.000000 
z"/>
<path fill="#EFC910" opacity="1.000000" stroke="none" 
	d="
M372.885681,718.994751 
	C372.885651,693.861816 372.885651,669.227539 372.885651,644.240967 
	C403.554321,644.240967 433.099701,644.240967 462.581543,644.240967 
	C462.581543,674.122864 462.581543,703.717224 462.581543,733.470520 
	C432.523956,733.470520 403.003448,733.470520 372.885712,733.470520 
	C372.885712,728.391113 372.885712,723.942261 372.885681,718.994751 
z"/>
<path fill="#EFC910" opacity="1.000000" stroke="none" 
	d="
M680.918518,732.740112 
	C679.303772,733.515076 677.747498,734.077576 676.192505,734.073975 
	C653.537903,734.021118 630.883240,733.935425 608.229431,733.751587 
	C602.621582,733.706055 597.016846,733.283386 591.485474,733.037415 
	C591.485474,703.356934 591.485474,673.960022 591.485474,644.225586 
	C621.634277,644.225586 651.184448,644.225586 680.977539,644.225586 
	C680.977539,673.740234 680.977539,703.002319 680.918518,732.740112 
z"/>
<path fill="#EFC910" opacity="1.000000" stroke="none" 
	d="
M506.997925,842.990112 
	C498.543060,842.982971 490.588379,842.982971 482.677063,842.982971 
	C482.677063,812.676697 482.677063,783.003052 482.677063,753.146851 
	C512.721863,753.146851 542.088013,753.146851 571.780151,753.146851 
	C571.780151,783.246887 571.780151,812.896790 571.780151,842.997192 
	C550.007690,842.997192 528.752930,842.997192 506.997925,842.990112 
z"/>
<path fill="#EFC910" opacity="1.000000" stroke="none" 
	d="
M494.019623,624.783813 
	C489.893005,624.783691 486.262054,624.783691 482.656067,624.783691 
	C482.656067,594.674561 482.656067,564.995850 482.656067,535.269775 
	C512.814331,535.269775 542.312805,535.269775 571.781982,535.269775 
	C571.781982,565.387695 571.781982,594.930969 571.781982,624.783875 
	C545.680969,624.783875 520.098145,624.783875 494.019623,624.783813 
z"/>
<path fill="#EFC910" opacity="1.000000" stroke="none" 
	d="
M700.216187,607.000244 
	C700.216248,582.724731 700.216248,558.949036 700.216248,535.197998 
	C730.941162,535.197998 760.497009,535.197998 790.241821,535.197998 
	C790.241821,565.245667 790.241821,594.790894 790.241821,624.652954 
	C759.993286,624.652954 730.287048,624.652954 700.216125,624.652954 
	C700.216125,618.707520 700.216125,613.103699 700.216187,607.000244 
z"/>
<path fill="#EFC910" opacity="1.000000" stroke="none" 
	d="
M700.000244,837.819519 
	C700.000183,809.384521 700.000183,781.430237 700.000183,753.115417 
	C730.777771,753.115417 760.326477,753.115417 790.172363,753.115417 
	C790.172363,783.206848 790.172363,812.878601 790.172363,842.811462 
	C759.981873,842.811462 730.402649,842.811462 700.364624,842.811462 
	C700.229248,841.134766 700.114746,839.717468 700.000244,837.819519 
z"/>
<path fill="#EFC910" opacity="1.000000" stroke="none" 
	d="
M681.113586,494.000824 
	C681.113586,501.475311 681.113586,508.449677 681.113586,515.509766 
	C650.967773,515.509766 621.261597,515.509766 591.571289,515.509766 
	C591.571289,485.368561 591.571289,455.835632 591.571289,426.002533 
	C621.671936,426.002533 651.087769,426.002533 681.113586,426.002533 
	C681.113586,448.698151 681.113586,471.099457 681.113586,494.000824 
z"/>
<path fill="#EFC910" opacity="1.000000" stroke="none" 
	d="
M482.888733,647.159668 
	C482.597656,642.923828 485.405823,643.916992 487.328552,643.916077 
	C507.986298,643.906433 528.644043,643.966003 549.301758,643.998474 
	C556.764709,644.010254 564.227600,644.000366 571.778015,644.000366 
	C571.778015,674.146423 571.778015,703.849426 571.778015,733.505859 
	C541.699402,733.505859 512.147766,733.505859 482.886749,733.505859 
	C482.886749,704.479126 482.886749,676.062073 482.888733,647.159668 
z"/>
<path fill="#EFC910" opacity="1.000000" stroke="none" 
	d="
M790.782715,650.850708 
	C790.521240,676.789978 790.259216,702.274475 790.002563,727.758972 
	C789.982788,729.718872 790.000000,731.679138 790.000000,733.579834 
	C759.909180,733.579834 730.319641,733.579834 700.679688,733.579834 
	C700.679688,703.509155 700.679688,673.977539 700.679688,644.492310 
	C730.935730,644.492310 760.507935,644.492310 790.783569,644.492310 
	C790.783569,646.860535 790.783569,648.628235 790.782715,650.850708 
z"/>
<path fill="#EFC910" opacity="1.000000" stroke="none" 
	d="
M786.819214,516.111206 
	C757.739929,516.113342 729.145203,516.113342 700.720947,516.113342 
	C700.720947,485.294006 700.720947,455.759430 700.720947,426.045776 
	C731.009155,426.045776 760.575928,426.045776 790.301086,426.045776 
	C790.301086,431.313324 790.317993,436.236572 790.298218,441.159698 
	C790.204041,464.643341 790.119812,488.127075 789.961243,511.610352 
	C789.948669,513.469421 791.119690,516.357788 786.819214,516.111206 
z"/>
</svg>