<svg version="1.1" id="Layer_1" xmlns="http://www.w3.org/2000/svg" xmlns:xlink="http://www.w3.org/1999/xlink" x="0px" y="0px"
	 width="100%" viewBox="0 0 300 300" enable-background="new 0 0 300 300" xml:space="preserve">
<path fill="#FEFEFF" opacity="1.000000" stroke="none" 
	d="
M1.000000,111.000000 
	C1.000000,74.015205 1.000000,37.530415 1.000000,1.022811 
	C100.943123,1.022811 200.886246,1.022811 300.914673,1.022811 
	C300.914673,100.901405 300.914673,200.802902 300.914673,300.852203 
	C201.000168,300.852203 101.000107,300.852203 1.000000,300.852203 
	C1.000000,237.780533 1.000000,174.640274 1.000000,111.000000 
M269.704926,115.020882 
	C275.750122,134.900436 269.328003,154.451431 253.197281,165.275467 
	C236.411194,176.539230 216.102844,175.346786 200.124603,161.842926 
	C196.343872,158.647690 194.348129,160.906921 191.796341,163.068802 
	C204.767960,179.095673 230.825653,184.653015 250.298065,175.744873 
	C271.642578,165.980301 283.791138,143.396759 279.749298,120.996605 
	C275.923981,99.796577 257.428223,81.409058 238.352890,80.251160 
	C238.058624,82.274780 237.758621,84.337891 237.467331,86.341072 
	C256.836426,94.361366 264.486755,101.093437 269.704926,115.020882 
M29.007030,121.986153 
	C33.203690,102.146713 47.623508,87.911278 65.515251,85.944733 
	C85.790474,83.716202 103.609062,93.165497 111.199211,110.813065 
	C113.295174,115.686295 115.972008,115.657906 119.929474,114.478470 
	C116.598923,95.819313 96.277771,79.745773 74.500412,78.230972 
	C52.207745,76.680336 30.548409,91.950241 23.668446,114.067673 
	C17.435633,134.104660 25.594088,159.007828 41.810486,168.779907 
	C42.987461,167.082764 44.174706,165.370819 45.299473,163.748947 
	C30.958685,148.786606 27.602921,140.304626 29.007030,121.986153 
M45.127338,168.692719 
	C32.748726,188.266068 33.867355,210.992737 48.082977,228.741074 
	C60.347385,244.053299 82.680481,251.207260 99.829887,245.104904 
	C99.208427,243.132965 98.586349,241.159088 97.998306,239.293198 
	C97.019691,239.293198 96.517937,239.214737 96.048340,239.304504 
	C77.742767,242.803299 60.406132,235.586517 50.560646,220.353836 
	C40.951336,205.486572 41.470871,186.171997 51.875053,171.489029 
	C62.051693,157.127182 80.067993,150.441498 97.834435,155.086761 
	C102.819061,156.390030 104.366928,154.093964 106.008461,150.586502 
	C88.793793,141.341644 60.205101,146.622284 45.127338,168.692719 
M168.678604,274.230896 
	C181.243256,269.130280 190.300781,260.464996 195.918991,248.141602 
	C191.879715,245.219543 189.610413,245.389191 187.056107,249.867981 
	C178.831009,264.290131 161.063812,272.950195 145.700104,270.736603 
	C126.731766,268.003632 112.398949,255.663528 108.025009,238.299652 
	C103.729378,221.246658 109.831940,203.339310 123.945267,193.036209 
	C128.102478,190.001343 127.197388,187.346680 125.268486,183.939529 
	C104.493469,192.736023 93.820419,222.290451 102.820686,245.329193 
	C113.083870,271.600708 141.481384,284.340637 168.678604,274.230896 
M165.036728,85.387054 
	C169.489182,66.280365 161.534454,45.287655 145.482025,33.781681 
	C128.513687,21.619207 106.365417,20.663280 89.117004,31.657701 
	C73.166183,41.825012 65.576431,56.640335 65.073555,75.946526 
	C67.717789,75.826447 69.746979,75.734299 71.667175,75.647095 
	C72.128067,72.543610 72.417549,70.068558 72.871124,67.623955 
	C76.270386,49.302887 86.977127,37.218079 104.888466,32.557434 
	C122.428925,27.993294 137.784821,33.161995 149.191254,47.135445 
	C160.754471,61.300961 162.423828,77.450554 154.210831,93.858353 
	C151.808304,98.658096 153.356705,100.646912 157.760208,103.993088 
	C160.278763,97.722511 162.589050,91.970505 165.036728,85.387054 
M228.924011,73.628288 
	C228.619476,96.052094 215.380905,112.400452 193.244644,117.192284 
	C188.724411,118.170776 188.610306,121.030045 188.404480,124.389206 
	C202.647308,126.270271 224.972824,113.554611 232.833298,92.488434 
	C241.303894,69.787086 232.245712,44.239136 210.655197,31.176041 
	C192.814789,20.381903 165.389282,23.043310 153.336731,36.872990 
	C154.591400,38.327816 155.862366,39.801552 157.227707,41.384720 
	C159.090118,40.149342 160.581146,39.119350 162.111710,38.151913 
	C170.089081,33.109615 178.860123,30.446926 188.204559,31.536140 
	C212.087326,34.319996 225.866714,48.516106 228.924011,73.628288 
M256.214478,198.450394 
	C256.010895,200.935776 256.070557,203.476379 255.562698,205.897949 
	C250.898117,228.138443 231.309753,242.419754 210.233948,240.645355 
	C185.889725,238.595764 169.659531,220.372803 169.784561,196.876144 
	C169.815826,191.001968 169.393585,190.538849 163.265701,189.726120 
	C159.101349,210.174408 170.470444,232.539459 190.032074,242.380493 
	C210.593872,252.724686 234.685089,248.269394 250.271118,231.240158 
	C264.212189,216.008179 267.611969,190.760864 257.598358,174.923126 
	C255.781265,175.843643 253.936111,176.778366 253.004440,177.250336 
	C254.159378,184.529373 255.188263,191.013947 256.214478,198.450394 
M114.550453,156.013977 
	C117.093765,148.547607 120.210144,141.216095 122.008522,133.574402 
	C123.596230,126.827873 122.167969,126.102486 115.373337,128.682495 
	C115.289070,129.132141 115.146454,129.612946 115.115028,130.100891 
	C113.271454,158.719803 88.678001,177.374893 61.066910,170.690079 
	C56.095894,169.486572 54.514462,171.467102 53.049183,175.189743 
	C71.081520,183.908325 99.648361,178.939926 114.550453,156.013977 
M223.555771,86.182640 
	C224.451340,84.081688 225.346909,81.980743 226.688400,78.833664 
	C206.874100,81.087006 192.653595,89.500160 183.935196,106.127663 
	C175.933380,121.388481 175.970200,136.801544 183.828430,152.651718 
	C186.227051,151.340607 188.047638,150.345474 189.819412,149.376999 
	C176.004486,116.992592 197.380722,89.817238 223.555771,86.182640 
M77.356018,94.981400 
	C75.407089,90.966621 74.387459,85.539001 67.745102,88.659882 
	C69.720428,103.483757 85.729576,119.316872 103.613693,123.577248 
	C120.081940,127.500336 134.904938,123.970970 148.413239,112.988319 
	C146.473557,110.876999 145.055954,109.333954 143.711563,107.870605 
	C117.638123,126.938820 88.762367,115.924423 77.356018,94.981400 
M200.660446,227.386810 
	C199.366226,186.210800 159.217163,170.497513 138.005798,179.040970 
	C138.281799,185.032227 138.610565,185.396683 143.191422,184.789276 
	C170.973480,181.105469 193.360046,200.481796 193.098526,228.345016 
	C193.050308,233.481201 195.333191,234.913345 199.728149,235.460709 
	C200.059708,232.841064 200.350967,230.539917 200.660446,227.386810 
M232.623108,158.735672 
	C235.264114,160.452072 238.361191,161.743469 240.444702,163.979370 
	C244.029724,167.826569 246.825012,166.850327 250.223099,163.494919 
	C236.706039,149.285568 220.470200,144.111710 201.638016,148.164749 
	C185.398956,151.659698 174.111084,161.637405 166.581711,176.950226 
	C170.030060,177.556747 172.341583,181.208984 175.176682,176.479675 
	C187.787811,155.442780 209.555267,148.615646 232.623108,158.735672 
M120.408722,169.135590 
	C136.214233,190.123093 133.149704,215.621719 112.604996,231.789078 
	C108.856758,234.738708 110.203857,237.119797 111.942337,240.689285 
	C128.133224,231.105789 136.696518,217.124741 137.607300,199.061417 
	C138.478271,181.786957 131.499374,167.617081 117.517799,156.525620 
	C115.998337,158.749557 114.825340,160.466400 113.416718,162.528107 
	C115.814346,164.753448 117.880592,166.671204 120.408722,169.135590 
M143.415787,85.835892 
	C140.752350,75.252228 141.541870,64.898201 146.820801,55.365223 
	C149.328125,50.837330 148.013916,48.541470 144.399231,46.208477 
	C133.266510,59.188896 131.677063,81.353119 140.843628,98.506096 
	C148.281876,112.424942 159.845764,120.895958 175.582245,124.318832 
	C176.042725,121.611000 176.368774,119.693634 176.745911,117.475883 
	C160.173248,113.018387 148.752670,103.166016 143.415787,85.835892 
z"/>
<path fill="#52BADD" opacity="1.000000" stroke="none" 
	d="
M269.538971,114.662354 
	C264.486755,101.093437 256.836426,94.361366 237.467331,86.341072 
	C237.758621,84.337891 238.058624,82.274780 238.352890,80.251160 
	C257.428223,81.409058 275.923981,99.796577 279.749298,120.996605 
	C283.791138,143.396759 271.642578,165.980301 250.298065,175.744873 
	C230.825653,184.653015 204.767960,179.095673 191.796341,163.068802 
	C194.348129,160.906921 196.343872,158.647690 200.124603,161.842926 
	C216.102844,175.346786 236.411194,176.539230 253.197281,165.275467 
	C269.328003,154.451431 275.750122,134.900436 269.538971,114.662354 
z"/>
<path fill="#53BADD" opacity="1.000000" stroke="none" 
	d="
M28.963028,122.439926 
	C27.602921,140.304626 30.958685,148.786606 45.299473,163.748947 
	C44.174706,165.370819 42.987461,167.082764 41.810486,168.779907 
	C25.594088,159.007828 17.435633,134.104660 23.668446,114.067673 
	C30.548409,91.950241 52.207745,76.680336 74.500412,78.230972 
	C96.277771,79.745773 116.598923,95.819313 119.929474,114.478470 
	C115.972008,115.657906 113.295174,115.686295 111.199211,110.813065 
	C103.609062,93.165497 85.790474,83.716202 65.515251,85.944733 
	C47.623508,87.911278 33.203690,102.146713 28.963028,122.439926 
z"/>
<path fill="#53BADD" opacity="1.000000" stroke="none" 
	d="
M45.330727,168.393066 
	C60.205101,146.622284 88.793793,141.341644 106.008461,150.586502 
	C104.366928,154.093964 102.819061,156.390030 97.834435,155.086761 
	C80.067993,150.441498 62.051693,157.127182 51.875053,171.489029 
	C41.470871,186.171997 40.951336,205.486572 50.560646,220.353836 
	C60.406132,235.586517 77.742767,242.803299 96.048340,239.304504 
	C96.517937,239.214737 97.019691,239.293198 97.998306,239.293198 
	C98.586349,241.159088 99.208427,243.132965 99.829887,245.104904 
	C82.680481,251.207260 60.347385,244.053299 48.082977,228.741074 
	C33.867355,210.992737 32.748726,188.266068 45.330727,168.393066 
z"/>
<path fill="#53BADD" opacity="1.000000" stroke="none" 
	d="
M168.325974,274.394714 
	C141.481384,284.340637 113.083870,271.600708 102.820686,245.329193 
	C93.820419,222.290451 104.493469,192.736023 125.268486,183.939529 
	C127.197388,187.346680 128.102478,190.001343 123.945267,193.036209 
	C109.831940,203.339310 103.729378,221.246658 108.025009,238.299652 
	C112.398949,255.663528 126.731766,268.003632 145.700104,270.736603 
	C161.063812,272.950195 178.831009,264.290131 187.056107,249.867981 
	C189.610413,245.389191 191.879715,245.219543 195.918991,248.141602 
	C190.300781,260.464996 181.243256,269.130280 168.325974,274.394714 
z"/>
<path fill="#53BADD" opacity="1.000000" stroke="none" 
	d="
M164.968018,85.802780 
	C162.589050,91.970505 160.278763,97.722511 157.760208,103.993088 
	C153.356705,100.646912 151.808304,98.658096 154.210831,93.858353 
	C162.423828,77.450554 160.754471,61.300961 149.191254,47.135445 
	C137.784821,33.161995 122.428925,27.993294 104.888466,32.557434 
	C86.977127,37.218079 76.270386,49.302887 72.871124,67.623955 
	C72.417549,70.068558 72.128067,72.543610 71.667175,75.647095 
	C69.746979,75.734299 67.717789,75.826447 65.073555,75.946526 
	C65.576431,56.640335 73.166183,41.825012 89.117004,31.657701 
	C106.365417,20.663280 128.513687,21.619207 145.482025,33.781681 
	C161.534454,45.287655 169.489182,66.280365 164.968018,85.802780 
z"/>
<path fill="#53BADD" opacity="1.000000" stroke="none" 
	d="
M228.908844,73.184563 
	C225.866714,48.516106 212.087326,34.319996 188.204559,31.536140 
	C178.860123,30.446926 170.089081,33.109615 162.111710,38.151913 
	C160.581146,39.119350 159.090118,40.149342 157.227707,41.384720 
	C155.862366,39.801552 154.591400,38.327816 153.336731,36.872990 
	C165.389282,23.043310 192.814789,20.381903 210.655197,31.176041 
	C232.245712,44.239136 241.303894,69.787086 232.833298,92.488434 
	C224.972824,113.554611 202.647308,126.270271 188.404480,124.389206 
	C188.610306,121.030045 188.724411,118.170776 193.244644,117.192284 
	C215.380905,112.400452 228.619476,96.052094 228.908844,73.184563 
z"/>
<path fill="#53BBDD" opacity="1.000000" stroke="none" 
	d="
M256.215820,197.974457 
	C255.188263,191.013947 254.159378,184.529373 253.004440,177.250336 
	C253.936111,176.778366 255.781265,175.843643 257.598358,174.923126 
	C267.611969,190.760864 264.212189,216.008179 250.271118,231.240158 
	C234.685089,248.269394 210.593872,252.724686 190.032074,242.380493 
	C170.470444,232.539459 159.101349,210.174408 163.265701,189.726120 
	C169.393585,190.538849 169.815826,191.001968 169.784561,196.876144 
	C169.659531,220.372803 185.889725,238.595764 210.233948,240.645355 
	C231.309753,242.419754 250.898117,228.138443 255.562698,205.897949 
	C256.070557,203.476379 256.010895,200.935776 256.215820,197.974457 
z"/>
<path fill="#53BADD" opacity="1.000000" stroke="none" 
	d="
M114.347572,156.315811 
	C99.648361,178.939926 71.081520,183.908325 53.049183,175.189743 
	C54.514462,171.467102 56.095894,169.486572 61.066910,170.690079 
	C88.678001,177.374893 113.271454,158.719803 115.115028,130.100891 
	C115.146454,129.612946 115.289070,129.132141 115.373337,128.682495 
	C122.167969,126.102486 123.596230,126.827873 122.008522,133.574402 
	C120.210144,141.216095 117.093765,148.547607 114.347572,156.315811 
z"/>
<path fill="#53BBDD" opacity="1.000000" stroke="none" 
	d="
M223.177979,86.308586 
	C197.380722,89.817238 176.004486,116.992592 189.819412,149.376999 
	C188.047638,150.345474 186.227051,151.340607 183.828430,152.651718 
	C175.970200,136.801544 175.933380,121.388481 183.935196,106.127663 
	C192.653595,89.500160 206.874100,81.087006 226.688400,78.833664 
	C225.346909,81.980743 224.451340,84.081688 223.177979,86.308586 
z"/>
<path fill="#53BADD" opacity="1.000000" stroke="none" 
	d="
M77.550812,95.298019 
	C88.762367,115.924423 117.638123,126.938820 143.711563,107.870605 
	C145.055954,109.333954 146.473557,110.876999 148.413239,112.988319 
	C134.904938,123.970970 120.081940,127.500336 103.613693,123.577248 
	C85.729576,119.316872 69.720428,103.483757 67.745117,88.659851 
	C74.387459,85.539001 75.407089,90.966621 77.550812,95.298019 
z"/>
<path fill="#53BADD" opacity="1.000000" stroke="none" 
	d="
M200.651337,227.812775 
	C200.350967,230.539917 200.059708,232.841064 199.728149,235.460709 
	C195.333191,234.913345 193.050308,233.481201 193.098526,228.345016 
	C193.360046,200.481796 170.973480,181.105469 143.191422,184.789276 
	C138.610565,185.396683 138.281799,185.032227 138.005798,179.040970 
	C159.217163,170.497513 199.366226,186.210800 200.651337,227.812775 
z"/>
<path fill="#53BADD" opacity="1.000000" stroke="none" 
	d="
M232.298096,158.542908 
	C209.555267,148.615646 187.787811,155.442780 175.176682,176.479675 
	C172.341583,181.208984 170.030060,177.556747 166.581711,176.950226 
	C174.111084,161.637405 185.398956,151.659698 201.638016,148.164749 
	C220.470200,144.111710 236.706039,149.285568 250.223099,163.494919 
	C246.825012,166.850327 244.029724,167.826569 240.444702,163.979370 
	C238.361191,161.743469 235.264114,160.452072 232.298096,158.542908 
z"/>
<path fill="#53BADD" opacity="1.000000" stroke="none" 
	d="
M120.177780,168.862274 
	C117.880592,166.671204 115.814346,164.753448 113.416718,162.528107 
	C114.825340,160.466400 115.998337,158.749557 117.517799,156.525620 
	C131.499374,167.617081 138.478271,181.786957 137.607300,199.061417 
	C136.696518,217.124741 128.133224,231.105789 111.942337,240.689285 
	C110.203857,237.119797 108.856758,234.738708 112.604996,231.789078 
	C133.149704,215.621719 136.214233,190.123093 120.177780,168.862274 
z"/>
<path fill="#52BADD" opacity="1.000000" stroke="none" 
	d="
M143.564026,86.218559 
	C148.752670,103.166016 160.173248,113.018387 176.745911,117.475883 
	C176.368774,119.693634 176.042725,121.611000 175.582245,124.318832 
	C159.845764,120.895958 148.281876,112.424942 140.843628,98.506096 
	C131.677063,81.353119 133.266510,59.188896 144.399231,46.208477 
	C148.013916,48.541470 149.328125,50.837330 146.820801,55.365223 
	C141.541870,64.898201 140.752350,75.252228 143.564026,86.218559 
z"/>
</svg>