<svg version="1.1" id="Layer_1" xmlns="http://www.w3.org/2000/svg" xmlns:xlink="http://www.w3.org/1999/xlink" x="0px" y="0px"
	 width="100%" viewBox="0 0 589 589" enable-background="new 0 0 589 589" xml:space="preserve">
<path fill="#C5C4C4" opacity="1.000000" stroke="none" 
	d="
M169.532394,1.000000 
	C182.111740,5.395006 194.673553,8.847845 206.244308,14.375299 
	C232.769592,27.046671 256.765137,43.931061 279.595093,62.309494 
	C299.646088,78.450813 319.342224,95.071983 338.579956,112.173172 
	C356.350281,127.969902 373.553253,144.430481 390.553741,161.061081 
	C411.611725,181.660828 432.452271,202.496704 452.922241,223.679504 
	C470.948853,242.333893 488.398773,261.548370 505.980499,280.628754 
	C515.424927,290.878235 524.610718,301.365967 534.347168,312.230438 
	C528.083313,317.713440 522.142334,323.193695 515.909363,328.318726 
	C494.738708,345.726135 473.694366,363.299164 452.173279,380.265350 
	C424.247803,402.280396 396.399261,424.446808 367.624695,445.316986 
	C333.983917,469.716553 299.713135,493.288971 265.105743,516.303040 
	C228.225250,540.828674 189.722916,562.672913 149.628967,581.605164 
	C143.919373,584.301208 138.121719,586.810730 132.182404,589.703247 
	C130.933334,590.000000 129.866653,590.000000 128.206833,589.718506 
	C119.925896,583.722412 111.545860,578.729492 104.687279,572.150391 
	C87.816536,555.967163 78.216858,535.225098 71.063141,513.404358 
	C60.399849,480.878510 55.534836,447.296204 55.153915,413.145264 
	C54.903660,390.708984 55.029922,368.226440 56.216774,345.829773 
	C57.134644,328.508881 59.643822,311.245544 62.015224,294.035095 
	C65.111717,271.562286 67.839020,248.975616 72.397713,226.781464 
	C79.901093,190.251099 88.510551,153.940536 97.101044,117.643181 
	C104.006088,88.467354 113.022842,59.901608 127.100731,33.312862 
	C133.593597,21.049837 139.244659,7.644815 153.000000,1.000000 
	C158.354935,1.000000 163.709854,1.000000 169.532394,1.000000 
M96.027557,395.360046 
	C96.168983,405.287720 99.563652,414.036072 106.638039,420.909210 
	C113.895515,427.960205 121.269424,435.039978 129.387482,441.029510 
	C156.928940,461.349731 187.600632,474.905914 221.227432,481.547638 
	C241.591492,485.569733 261.987244,486.345734 281.409241,477.851868 
	C294.314850,472.207855 307.027618,465.806427 319.001007,458.407745 
	C352.287201,437.839203 380.893280,411.391357 408.893707,384.350433 
	C420.251740,373.381622 430.520325,361.291656 441.697144,350.124725 
	C445.957764,345.867828 446.893707,341.595093 445.253204,336.222382 
	C441.187836,322.908203 437.874390,309.311066 432.955872,296.320984 
	C419.503021,260.791595 402.880524,226.667007 384.532623,193.440033 
	C376.111877,178.190582 366.281372,163.714706 356.963593,148.967987 
	C353.343689,143.238983 348.393005,139.903824 341.114410,140.964676 
	C327.866821,142.895493 314.393890,143.725052 301.358307,146.581161 
	C262.991333,154.987335 224.645981,163.582809 186.577148,173.228928 
	C159.086716,180.194611 132.053513,188.963791 104.811714,196.912598 
	C98.532135,198.744904 94.088326,202.655869 92.911034,209.102859 
	C90.982193,219.665390 88.197151,230.344177 88.287071,240.952621 
	C88.578659,275.353577 89.985008,309.745697 91.039169,344.138824 
	C91.180847,348.761353 91.686676,353.378326 92.159096,357.983978 
	C93.406219,370.142395 94.727676,382.293243 96.027557,395.360046 
z"/>
<path fill="#FFFFFF" opacity="1.000000" stroke="none" 
	d="
M96.023552,394.903564 
	C94.727676,382.293243 93.406219,370.142395 92.159096,357.983978 
	C91.686676,353.378326 91.180847,348.761353 91.039169,344.138824 
	C89.985008,309.745697 88.578659,275.353577 88.287071,240.952621 
	C88.197151,230.344177 90.982193,219.665390 92.911034,209.102859 
	C94.088326,202.655869 98.532135,198.744904 104.811714,196.912598 
	C132.053513,188.963791 159.086716,180.194611 186.577148,173.228928 
	C224.645981,163.582809 262.991333,154.987335 301.358307,146.581161 
	C314.393890,143.725052 327.866821,142.895493 341.114410,140.964676 
	C348.393005,139.903824 353.343689,143.238983 356.963593,148.967987 
	C366.281372,163.714706 376.111877,178.190582 384.532623,193.440033 
	C402.880524,226.667007 419.503021,260.791595 432.955872,296.320984 
	C437.874390,309.311066 441.187836,322.908203 445.253204,336.222382 
	C446.893707,341.595093 445.957764,345.867828 441.697144,350.124725 
	C430.520325,361.291656 420.251740,373.381622 408.893707,384.350433 
	C380.893280,411.391357 352.287201,437.839203 319.001007,458.407745 
	C307.027618,465.806427 294.314850,472.207855 281.409241,477.851868 
	C261.987244,486.345734 241.591492,485.569733 221.227432,481.547638 
	C187.600632,474.905914 156.928940,461.349731 129.387482,441.029510 
	C121.269424,435.039978 113.895515,427.960205 106.638039,420.909210 
	C99.563652,414.036072 96.168983,405.287720 96.023552,394.903564 
M369.474243,363.000122 
	C358.727753,363.000122 347.981262,363.000122 337.402008,363.000122 
	C337.402008,377.761322 337.402008,391.805847 337.402008,405.729462 
	C351.730713,405.729462 365.656219,405.729462 379.684326,405.729462 
	C379.684326,391.414825 379.684326,377.372406 379.684326,363.000122 
	C376.405823,363.000122 373.433990,363.000122 369.474243,363.000122 
M284.000610,402.312744 
	C283.612274,405.002441 284.487061,406.150574 287.481415,406.066193 
	C294.802216,405.859955 302.132782,405.999634 309.459412,405.999847 
	C315.218964,406.000031 320.978516,405.999878 326.612579,405.999878 
	C326.612579,391.271332 326.612579,377.225830 326.612579,363.258209 
	C312.297241,363.258209 298.370453,363.258209 284.000214,363.258209 
	C284.000214,376.124084 284.000214,388.737152 284.000610,402.312744 
M273.999878,386.499634 
	C273.999878,378.747589 273.999878,370.995544 273.999878,363.394806 
	C259.251923,363.394806 245.208374,363.394806 231.262360,363.394806 
	C231.262360,377.715424 231.262360,391.640076 231.262360,405.693665 
	C245.567841,405.693665 259.609436,405.693665 273.999878,405.693665 
	C273.999878,399.428009 273.999878,393.463715 273.999878,386.499634 
M178.000214,391.495453 
	C178.000214,396.249054 178.000214,401.002625 178.000214,405.603210 
	C192.752075,405.603210 206.795715,405.603210 220.735596,405.603210 
	C220.735596,391.280518 220.735596,377.355774 220.735596,363.308502 
	C206.428116,363.308502 192.386429,363.308502 178.000214,363.308502 
	C178.000214,372.573914 178.000214,381.535248 178.000214,391.495453 
M125.000267,368.619354 
	C125.000267,381.023285 125.000267,393.427216 125.000267,405.740234 
	C139.706711,405.740234 153.633087,405.740234 167.693390,405.740234 
	C167.693390,391.435638 167.693390,377.392181 167.693390,363.176514 
	C153.461792,363.176514 139.536606,363.176514 125.278023,363.176514 
	C125.179749,364.759521 125.090042,366.204620 125.000267,368.619354 
M354.501251,310.000122 
	C348.745331,310.000122 342.989441,310.000122 337.396667,310.000122 
	C337.396667,324.751892 337.396667,338.795532 337.396667,352.735809 
	C351.719208,352.735809 365.643982,352.735809 379.691711,352.735809 
	C379.691711,338.428467 379.691711,324.386749 379.691711,310.000122 
	C371.424683,310.000122 363.462646,310.000122 354.501251,310.000122 
M326.999878,321.518738 
	C326.999878,317.761932 326.999878,314.005127 326.999878,310.393585 
	C312.255096,310.393585 298.211212,310.393585 284.261658,310.393585 
	C284.261658,324.713470 284.261658,338.638458 284.261658,352.693695 
	C298.566742,352.693695 312.608795,352.693695 326.999878,352.693695 
	C326.999878,342.431641 326.999878,332.471802 326.999878,321.518738 
M273.999878,318.547943 
	C273.999878,315.785583 273.999878,313.023193 273.999878,310.384827 
	C259.273346,310.384827 245.229599,310.384827 231.253235,310.384827 
	C231.253235,324.695831 231.253235,338.620880 231.253235,352.701904 
	C245.549667,352.701904 259.591827,352.701904 273.999878,352.701904 
	C273.999878,341.451233 273.999878,330.494537 273.999878,318.547943 
M220.999786,329.500366 
	C220.999786,323.079712 220.999786,316.659088 220.999786,310.396179 
	C206.249115,310.396179 192.205566,310.396179 178.263702,310.396179 
	C178.263702,324.718140 178.263702,338.642822 178.263702,352.692291 
	C192.570374,352.692291 206.612015,352.692291 220.999786,352.692291 
	C220.999786,345.092102 220.999786,337.796112 220.999786,329.500366 
M167.996643,312.724457 
	C166.850113,311.816742 165.733994,310.173035 164.551971,310.124176 
	C158.235229,309.863190 151.902039,310.000336 145.574524,310.000153 
	C138.813660,309.999939 132.052795,310.000122 125.374451,310.000122 
	C125.374451,324.702148 125.374451,338.747192 125.374451,352.754883 
	C139.676331,352.754883 153.602783,352.754883 167.999359,352.754883 
	C167.999359,339.572723 167.999359,326.630371 167.996643,312.724457 
M379.192688,257.149445 
	C365.263855,257.149445 351.335052,257.149445 337.325714,257.149445 
	C337.325714,271.600677 337.325714,285.645782 337.325714,299.625366 
	C351.700562,299.625366 365.746643,299.625366 379.856659,299.625366 
	C379.856659,285.444366 379.856659,271.637482 379.192688,257.149445 
M284.000122,265.550537 
	C284.000122,276.961060 284.000122,288.371582 284.000122,299.765381 
	C298.657196,299.765381 312.582458,299.765381 326.719604,299.765381 
	C326.719604,285.487610 326.719604,271.445068 326.719604,257.326355 
	C312.394135,257.326355 298.351257,257.326355 284.000122,257.326355 
	C284.000122,259.953308 284.000122,262.261658 284.000122,265.550537 
M231.000229,294.381165 
	C231.000229,296.146545 231.000229,297.911926 231.000229,299.637329 
	C245.679520,299.637329 259.723694,299.637329 273.589478,299.637329 
	C273.589478,285.227539 273.589478,271.183594 273.589478,257.279205 
	C259.252014,257.279205 245.326340,257.279205 231.000214,257.279205 
	C231.000214,269.505646 231.000214,281.457489 231.000229,294.381165 
M178.000214,285.495453 
	C178.000214,290.249054 178.000214,295.002625 178.000214,299.603210 
	C192.752075,299.603210 206.795715,299.603210 220.735596,299.603210 
	C220.735596,285.280518 220.735596,271.355774 220.735596,257.308502 
	C206.428116,257.308502 192.386429,257.308502 178.000214,257.308502 
	C178.000214,266.573914 178.000214,275.535248 178.000214,285.495453 
M155.488953,299.999878 
	C159.577408,299.999878 163.665863,299.999878 167.604492,299.999878 
	C167.604492,285.250793 167.604492,271.207123 167.604492,257.263153 
	C153.283112,257.263153 139.358292,257.263153 125.307495,257.263153 
	C125.307495,271.569519 125.307495,285.611298 125.307495,299.999878 
	C135.237625,299.999878 144.864563,299.999878 155.488953,299.999878 
M379.192719,204.149460 
	C365.263916,204.149460 351.335114,204.149460 337.325745,204.149460 
	C337.325745,218.600662 337.325745,232.645752 337.325745,246.625305 
	C351.700562,246.625305 365.746613,246.625305 379.856689,246.625305 
	C379.856689,232.444366 379.856689,218.637497 379.192719,204.149460 
M326.999878,230.498077 
	C326.999878,221.747314 326.999878,212.996552 326.999878,204.394379 
	C312.252960,204.394379 298.209381,204.394379 284.261963,204.394379 
	C284.261963,218.714554 284.261963,232.639282 284.261963,246.693832 
	C298.566986,246.693832 312.608673,246.693832 326.999878,246.693832 
	C326.999878,241.428268 326.999878,236.462402 326.999878,230.498077 
M237.590668,246.999786 
	C249.664017,246.999786 261.737366,246.999786 273.750305,246.999786 
	C273.750305,232.313507 273.750305,218.387451 273.750305,204.296326 
	C259.456238,204.296326 245.413071,204.296326 231.343384,204.296326 
	C231.343384,218.638428 231.343384,232.681808 231.343384,246.999771 
	C233.329758,246.999771 234.974548,246.999771 237.590668,246.999786 
M209.481262,204.000214 
	C199.067322,204.000214 188.653381,204.000214 178.399185,204.000214 
	C178.399185,218.756104 178.399185,232.800186 178.399185,246.732727 
	C192.724670,246.732727 206.649734,246.732727 220.688049,246.732727 
	C220.688049,232.421722 220.688049,218.379684 220.688049,204.000214 
	C217.078171,204.000214 213.776199,204.000214 209.481262,204.000214 
M137.511963,246.999786 
	C147.593597,246.999786 157.675232,246.999786 167.602859,246.999786 
	C167.602859,232.248001 167.602859,218.204010 167.602859,204.265198 
	C153.279572,204.265198 139.354462,204.265198 125.309868,204.265198 
	C125.309868,218.573853 125.309868,232.615875 125.309868,246.999786 
	C129.247635,246.999786 132.883179,246.999786 137.511963,246.999786 
z"/>
<path fill="#EFC90F" opacity="1.000000" stroke="none" 
	d="
M369.968201,363.000122 
	C373.433990,363.000122 376.405823,363.000122 379.684326,363.000122 
	C379.684326,377.372406 379.684326,391.414825 379.684326,405.729462 
	C365.656219,405.729462 351.730713,405.729462 337.402008,405.729462 
	C337.402008,391.805847 337.402008,377.761322 337.402008,363.000122 
	C347.981262,363.000122 358.727753,363.000122 369.968201,363.000122 
z"/>
<path fill="#EFC90F" opacity="1.000000" stroke="none" 
	d="
M284.000427,401.831482 
	C284.000214,388.737152 284.000214,376.124084 284.000214,363.258209 
	C298.370453,363.258209 312.297241,363.258209 326.612579,363.258209 
	C326.612579,377.225830 326.612579,391.271332 326.612579,405.999878 
	C320.978516,405.999878 315.218964,406.000031 309.459412,405.999847 
	C302.132782,405.999634 294.802216,405.859955 287.481415,406.066193 
	C284.487061,406.150574 283.612274,405.002441 284.000427,401.831482 
z"/>
<path fill="#EFC90F" opacity="1.000000" stroke="none" 
	d="
M273.999878,386.999512 
	C273.999878,393.463715 273.999878,399.428009 273.999878,405.693665 
	C259.609436,405.693665 245.567841,405.693665 231.262360,405.693665 
	C231.262360,391.640076 231.262360,377.715424 231.262360,363.394806 
	C245.208374,363.394806 259.251923,363.394806 273.999878,363.394806 
	C273.999878,370.995544 273.999878,378.747589 273.999878,386.999512 
z"/>
<path fill="#EFC90F" opacity="1.000000" stroke="none" 
	d="
M178.000214,390.996002 
	C178.000214,381.535248 178.000214,372.573914 178.000214,363.308502 
	C192.386429,363.308502 206.428116,363.308502 220.735596,363.308502 
	C220.735596,377.355774 220.735596,391.280518 220.735596,405.603210 
	C206.795715,405.603210 192.752075,405.603210 178.000214,405.603210 
	C178.000214,401.002625 178.000214,396.249054 178.000214,390.996002 
z"/>
<path fill="#EFC90F" opacity="1.000000" stroke="none" 
	d="
M125.000298,368.134521 
	C125.090042,366.204620 125.179749,364.759521 125.278023,363.176514 
	C139.536606,363.176514 153.461792,363.176514 167.693390,363.176514 
	C167.693390,377.392181 167.693390,391.435638 167.693390,405.740234 
	C153.633087,405.740234 139.706711,405.740234 125.000267,405.740234 
	C125.000267,393.427216 125.000267,381.023285 125.000298,368.134521 
z"/>
<path fill="#EFC90F" opacity="1.000000" stroke="none" 
	d="
M355.000916,310.000122 
	C363.462646,310.000122 371.424683,310.000122 379.691711,310.000122 
	C379.691711,324.386749 379.691711,338.428467 379.691711,352.735809 
	C365.643982,352.735809 351.719208,352.735809 337.396667,352.735809 
	C337.396667,338.795532 337.396667,324.751892 337.396667,310.000122 
	C342.989441,310.000122 348.745331,310.000122 355.000916,310.000122 
z"/>
<path fill="#EFC90F" opacity="1.000000" stroke="none" 
	d="
M326.999878,322.015350 
	C326.999878,332.471802 326.999878,342.431641 326.999878,352.693695 
	C312.608795,352.693695 298.566742,352.693695 284.261658,352.693695 
	C284.261658,338.638458 284.261658,324.713470 284.261658,310.393585 
	C298.211212,310.393585 312.255096,310.393585 326.999878,310.393585 
	C326.999878,314.005127 326.999878,317.761932 326.999878,322.015350 
z"/>
<path fill="#EFC90F" opacity="1.000000" stroke="none" 
	d="
M273.999878,319.042908 
	C273.999878,330.494537 273.999878,341.451233 273.999878,352.701904 
	C259.591827,352.701904 245.549667,352.701904 231.253235,352.701904 
	C231.253235,338.620880 231.253235,324.695831 231.253235,310.384827 
	C245.229599,310.384827 259.273346,310.384827 273.999878,310.384827 
	C273.999878,313.023193 273.999878,315.785583 273.999878,319.042908 
z"/>
<path fill="#EFC90F" opacity="1.000000" stroke="none" 
	d="
M220.999786,330.000244 
	C220.999786,337.796112 220.999786,345.092102 220.999786,352.692291 
	C206.612015,352.692291 192.570374,352.692291 178.263702,352.692291 
	C178.263702,338.642822 178.263702,324.718140 178.263702,310.396179 
	C192.205566,310.396179 206.249115,310.396179 220.999786,310.396179 
	C220.999786,316.659088 220.999786,323.079712 220.999786,330.000244 
z"/>
<path fill="#EFC90F" opacity="1.000000" stroke="none" 
	d="
M167.998001,313.206238 
	C167.999359,326.630371 167.999359,339.572723 167.999359,352.754883 
	C153.602783,352.754883 139.676331,352.754883 125.374451,352.754883 
	C125.374451,338.747192 125.374451,324.702148 125.374451,310.000122 
	C132.052795,310.000122 138.813660,309.999939 145.574524,310.000153 
	C151.902039,310.000336 158.235229,309.863190 164.551971,310.124176 
	C165.733994,310.173035 166.850113,311.816742 167.998001,313.206238 
z"/>
<path fill="#EFC90F" opacity="1.000000" stroke="none" 
	d="
M379.524658,257.490021 
	C379.856659,271.637482 379.856659,285.444366 379.856659,299.625366 
	C365.746643,299.625366 351.700562,299.625366 337.325714,299.625366 
	C337.325714,285.645782 337.325714,271.600677 337.325714,257.149445 
	C351.335052,257.149445 365.263855,257.149445 379.524658,257.490021 
z"/>
<path fill="#EFC90F" opacity="1.000000" stroke="none" 
	d="
M284.000122,265.060303 
	C284.000122,262.261658 284.000122,259.953308 284.000122,257.326355 
	C298.351257,257.326355 312.394135,257.326355 326.719604,257.326355 
	C326.719604,271.445068 326.719604,285.487610 326.719604,299.765381 
	C312.582458,299.765381 298.657196,299.765381 284.000122,299.765381 
	C284.000122,288.371582 284.000122,276.961060 284.000122,265.060303 
z"/>
<path fill="#EFC90F" opacity="1.000000" stroke="none" 
	d="
M231.000214,293.895264 
	C231.000214,281.457489 231.000214,269.505646 231.000214,257.279205 
	C245.326340,257.279205 259.252014,257.279205 273.589478,257.279205 
	C273.589478,271.183594 273.589478,285.227539 273.589478,299.637329 
	C259.723694,299.637329 245.679520,299.637329 231.000229,299.637329 
	C231.000229,297.911926 231.000229,296.146545 231.000214,293.895264 
z"/>
<path fill="#EFC90F" opacity="1.000000" stroke="none" 
	d="
M178.000214,284.996002 
	C178.000214,275.535248 178.000214,266.573914 178.000214,257.308502 
	C192.386429,257.308502 206.428116,257.308502 220.735596,257.308502 
	C220.735596,271.355774 220.735596,285.280518 220.735596,299.603210 
	C206.795715,299.603210 192.752075,299.603210 178.000214,299.603210 
	C178.000214,295.002625 178.000214,290.249054 178.000214,284.996002 
z"/>
<path fill="#EFC90F" opacity="1.000000" stroke="none" 
	d="
M154.990234,299.999878 
	C144.864563,299.999878 135.237625,299.999878 125.307495,299.999878 
	C125.307495,285.611298 125.307495,271.569519 125.307495,257.263153 
	C139.358292,257.263153 153.283112,257.263153 167.604492,257.263153 
	C167.604492,271.207123 167.604492,285.250793 167.604492,299.999878 
	C163.665863,299.999878 159.577408,299.999878 154.990234,299.999878 
z"/>
<path fill="#EFC90F" opacity="1.000000" stroke="none" 
	d="
M379.524719,204.490036 
	C379.856689,218.637497 379.856689,232.444366 379.856689,246.625305 
	C365.746613,246.625305 351.700562,246.625305 337.325745,246.625305 
	C337.325745,232.645752 337.325745,218.600662 337.325745,204.149460 
	C351.335114,204.149460 365.263916,204.149460 379.524719,204.490036 
z"/>
<path fill="#EFC90F" opacity="1.000000" stroke="none" 
	d="
M326.999878,230.997299 
	C326.999878,236.462402 326.999878,241.428268 326.999878,246.693832 
	C312.608673,246.693832 298.566986,246.693832 284.261963,246.693832 
	C284.261963,232.639282 284.261963,218.714554 284.261963,204.394379 
	C298.209381,204.394379 312.252960,204.394379 326.999878,204.394379 
	C326.999878,212.996552 326.999878,221.747314 326.999878,230.997299 
z"/>
<path fill="#EFC90F" opacity="1.000000" stroke="none" 
	d="
M237.105011,246.999786 
	C234.974548,246.999771 233.329758,246.999771 231.343384,246.999771 
	C231.343384,232.681808 231.343384,218.638428 231.343384,204.296326 
	C245.413071,204.296326 259.456238,204.296326 273.750305,204.296326 
	C273.750305,218.387451 273.750305,232.313507 273.750305,246.999786 
	C261.737366,246.999786 249.664017,246.999786 237.105011,246.999786 
z"/>
<path fill="#EFC90F" opacity="1.000000" stroke="none" 
	d="
M209.977753,204.000214 
	C213.776199,204.000214 217.078171,204.000214 220.688049,204.000214 
	C220.688049,218.379684 220.688049,232.421722 220.688049,246.732727 
	C206.649734,246.732727 192.724670,246.732727 178.399185,246.732727 
	C178.399185,232.800186 178.399185,218.756104 178.399185,204.000214 
	C188.653381,204.000214 199.067322,204.000214 209.977753,204.000214 
z"/>
<path fill="#EFC90F" opacity="1.000000" stroke="none" 
	d="
M137.015350,246.999786 
	C132.883179,246.999786 129.247635,246.999786 125.309868,246.999786 
	C125.309868,232.615875 125.309868,218.573853 125.309868,204.265198 
	C139.354462,204.265198 153.279572,204.265198 167.602859,204.265198 
	C167.602859,218.204010 167.602859,232.248001 167.602859,246.999786 
	C157.675232,246.999786 147.593597,246.999786 137.015350,246.999786 
z"/>
</svg>