<svg id="Lager_1" data-name="Lager 1" xmlns="http://www.w3.org/2000/svg" viewBox="0 0 1000 1000"><defs><style>.cls-1{fill:#fff;}.cls-2{fill:#1f1f1f;}</style></defs><title>Manu-list</title><rect class="cls-1" x="129" y="129" width="743" height="743" rx="70.52"/><path class="cls-2" d="M801.48,149A50.57,50.57,0,0,1,852,199.52v602A50.57,50.57,0,0,1,801.48,852h-602A50.57,50.57,0,0,1,149,801.48v-602A50.57,50.57,0,0,1,199.52,149h602m0-40h-602A90.52,90.52,0,0,0,109,199.52v602A90.52,90.52,0,0,0,199.52,892h602A90.52,90.52,0,0,0,892,801.48v-602A90.52,90.52,0,0,0,801.48,109Z"/><path class="cls-2" d="M253.23,730.94a30,30,0,1,1,30-30A30,30,0,0,1,253.23,730.94Z"/><path class="cls-2" d="M253.23,691a10,10,0,1,1-10,10,10,10,0,0,1,10-10m0-40h0a50,50,0,0,0-50,50h0a50,50,0,0,0,50,50h0a50,50,0,0,0,50-50h0a50,50,0,0,0-50-50Z"/><path class="cls-2" d="M389.5,718.51a17.5,17.5,0,0,1,0-35h370a17.5,17.5,0,0,1,0,35Z"/><path class="cls-2" d="M759.51,663.51h-370a37.5,37.5,0,0,0,0,75h370a37.5,37.5,0,0,0,0-75Z"/><path class="cls-2" d="M253.85,530a30,30,0,1,1,30-30A30,30,0,0,1,253.85,530Z"/><path class="cls-2" d="M253.85,490a10,10,0,1,1-10,10,10,10,0,0,1,10-10m0-40h0a50,50,0,0,0-50,50h0a50,50,0,0,0,50,50h0a50,50,0,0,0,50-50h0a50,50,0,0,0-50-50Z"/><path class="cls-2" d="M390.2,518a17.5,17.5,0,0,1,0-35H759.83a17.5,17.5,0,0,1,0,35Z"/><path class="cls-2" d="M759.83,463H390.2a37.5,37.5,0,0,0,0,75H759.83a37.5,37.5,0,0,0,0-75Z"/><path class="cls-2" d="M253.85,329.41a30,30,0,1,1,30-30A30,30,0,0,1,253.85,329.41Z"/><path class="cls-2" d="M253.85,289.46a10,10,0,1,1-10,10,10,10,0,0,1,10-10m0-40h0a50,50,0,0,0-50,50h0a50,50,0,0,0,50,50h0a50,50,0,0,0,50-50h0a50,50,0,0,0-50-50Z"/><path class="cls-2" d="M390.2,317a17.5,17.5,0,0,1,0-35H759.83a17.5,17.5,0,0,1,0,35Z"/><path class="cls-2" d="M759.83,262H390.2a37.5,37.5,0,0,0,0,75H759.83a37.5,37.5,0,0,0,0-75Z"/></svg>