<svg id="Lager_1" data-name="Lager 1" xmlns="http://www.w3.org/2000/svg" viewBox="0 0 1000 1000"><defs><style>.cls-1{fill:#f0c900;}.cls-2{fill:#1f1f1f;}</style></defs><title>Menu-cards-selected</title><rect class="cls-1" x="129" y="129" width="743" height="743" rx="70.52"/><path class="cls-2" d="M801.48,149A50.57,50.57,0,0,1,852,199.52v602A50.57,50.57,0,0,1,801.48,852h-602A50.57,50.57,0,0,1,149,801.48v-602A50.57,50.57,0,0,1,199.52,149h602m0-40h-602A90.52,90.52,0,0,0,109,199.52v602A90.52,90.52,0,0,0,199.52,892h602A90.52,90.52,0,0,0,892,801.48v-602A90.52,90.52,0,0,0,801.48,109Z"/><rect class="cls-1" x="215.91" y="216.91" width="233.84" height="233.84" rx="14.01"/><path class="cls-2" d="M429.75,236.91V430.75H235.91V236.91H429.75m6-40H229.92a34,34,0,0,0-34,34V436.74a34,34,0,0,0,34,34H435.74a34,34,0,0,0,34-34V230.92a34,34,0,0,0-34-34Z"/><rect class="cls-1" x="550.75" y="215.78" width="233.84" height="233.84" rx="14.01"/><path class="cls-2" d="M764.59,235.78V429.62H570.75V235.78H764.59m6-40H564.76a34,34,0,0,0-34,34V435.61a34,34,0,0,0,34,34H770.58a34,34,0,0,0,34-34V229.79a34,34,0,0,0-34-34Z"/><rect class="cls-1" x="215.26" y="551.99" width="233.84" height="233.84" rx="14.01"/><path class="cls-2" d="M429.1,572V765.83H235.26V572H429.1m6-40H229.27a34,34,0,0,0-34,34V771.82a34,34,0,0,0,34,34H435.09a34,34,0,0,0,34-34V566a34,34,0,0,0-34-34Z"/><rect class="cls-1" x="550.1" y="550.86" width="233.84" height="233.84" rx="14.01"/><path class="cls-2" d="M763.94,570.86V764.7H570.1V570.86H763.94m6-40H564.11a34,34,0,0,0-34,34V770.69a34,34,0,0,0,34,34H769.93a34,34,0,0,0,34-34V564.87a34,34,0,0,0-34-34Z"/></svg>