<svg version="1" xmlns="http://www.w3.org/2000/svg" width="1066.667" height="1066.667" viewBox="0 0 800.000000 800.000000"><path d="M281.4 109.8c-12.9 6.1-35.1 50.2-48.3 95.8-10.2 35.5-25.1 99.9-32.5 140.6-11.8 64.5-16.5 107.9-17.3 159.4-.7 43.5 1.2 69.1 7.7 101.4 11.1 55.5 35.2 96.5 65.8 111.9l4.3 2.2 10.7-4.7c81-35.2 200-113.7 328.7-216.8 25.5-20.4 68-55.7 76.9-63.8l5-4.5-19.9-21.9c-110.3-121.2-199.2-205.8-267-254.2-29.7-21.2-55.8-35.7-77-42.8-9.4-3.2-12.6-3.8-22-4.1-9.3-.3-11.6-.1-15.1 1.5zM488.1 255c4.4 1.2 7.7 5 18.2 21 30.4 46.3 73.8 140.6 81.1 176.2 2.7 13.2 3.2 12-11.8 28-54.7 58.6-112.3 104.4-151.1 120.3-20.6 8.5-37.6 10.4-61.8 6.9-44.1-6.4-96.2-32.4-123.1-61.5-11-11.9-11.1-12.2-14.6-50.4-9.9-110.5-8.8-168.9 3.6-179.6 10.9-9.3 178-51.8 233.4-59.3 21-2.9 21.4-2.9 26.1-1.6z"/><path d="M257.5 321.3c-.3.7-.4 10.9-.3 22.7l.3 21.5 22.7.3 22.6.2.7-9.2c.3-5.1.5-15.4.3-22.8l-.3-13.5-22.8-.3c-17.9-.2-22.9 0-23.2 1.1zM312 343v23h46v-46h-46v23zM367 343v23l22.8-.2 22.7-.3.3-22.8.2-22.7h-46v23zM421.7 320.6c-.4.4-.7 10.8-.7 23.1V366h45.8l.7-16.3c.4-8.9.5-19.1.3-22.7l-.3-6.5-22.6-.3c-12.4-.1-22.8.1-23.2.4zM476 343v23h46v-46h-46v23zM257.5 376.1c-.3 1.3-.4 11.8-.3 23.4l.3 21 22.6.3 22.6.2.6-6.7c.4-3.8.7-14.1.7-23.1V375h-13.2c-7.3-.1-17.7-.3-23-.6-9.6-.6-9.7-.6-10.3 1.7zM312.5 375.2c-.3.7-.4 11.2-.3 23.3l.3 22h45l.3-22.8.2-22.7h-13.2c-7.3-.1-17.5-.3-22.5-.6-7.3-.5-9.4-.3-9.8.8zM367.8 374.6c-.5.4-.8 11-.8 23.6V421l22.8-.2 22.7-.3.3-22.8.2-22.7h-14.2c-7.9 0-17.9-.3-22.3-.6-4.4-.4-8.3-.3-8.7.2zM421.5 375.2c-.3.7-.4 11.2-.3 23.3l.3 22 22.6.3 22.6.2.6-12.7c.4-7.1.7-17.4.7-23.1V375h-13.7c-7.6-.1-18-.3-23-.6-7.3-.5-9.4-.3-9.8.8zM476.5 375.2c-.3.7-.4 11.2-.3 23.3l.3 22h45l.3-22.8.2-22.7-13.2-.1c-7.3 0-17.5-.3-22.5-.6-7.3-.4-9.4-.2-9.8.9zM257.7 429.6c-.4.4-.7 10.7-.7 23v22.2l22.3.4c12.2.2 22.6 0 23.2-.4.5-.5.9-10.2 1-23.1v-22.2l-22.6-.3c-12.4-.1-22.8.1-23.2.4zM312 451.9v22.9l22.3.4c12.2.2 22.5.3 23 .1.4-.2.7-10.7.7-23.4V429h-46v22.9zM367 451.9v22.9l22.3.4c14.7.2 22.5 0 22.9-.7.5-.5.7-10.9.5-23l-.2-22-22.7-.3-22.8-.2v22.9zM421.7 429.6c-.4.4-.7 10.7-.7 23v22.2l22.3.4c12.2.2 22.5.1 23-.2.4-.4.8-10.7 1-23.1l.2-22.4-22.6-.3c-12.4-.1-22.8.1-23.2.4zM476.8 429.5c-.5.5-.8 10.8-.8 23.1v22.2l22.3.4c12.2.2 22.5.3 23 .1.6-.4 1.1-45.3.5-45.3-5.9-.6-44.5-1-45-.5zM258.1 484.3c-.8 1.1-1.1 7.6-.9 23.3l.3 21.9 22.6.3 22.6.2.6-6.7c.4-3.8.7-14.1.7-23.1V484h-20.9c-11.5 0-21.6-.2-22.4-.5-.7-.3-1.9 0-2.6.8zM312.7 483.6c-.4.4-.7 11-.7 23.6V530h46v-46h-20.9c-11.5 0-21.6-.2-22.3-.5-.8-.3-1.7-.2-2.1.1zM367.7 483.6c-.4.4-.7 11-.7 23.6V530l22.8-.2 22.7-.3.3-22.8.2-22.7h-20.9c-11.5 0-21.6-.2-22.3-.5-.8-.3-1.7-.2-2.1.1zM421.9 484.4c-.5.6-.9 10.6-.9 23.3V530h45.7l.6-12.8c1.1-20.5.9-32.2-.5-32.7-2.7-.9-43.9-1-44.9-.1zM476.7 483.6c-.4.4-.7 11-.7 23.6V530h46v-46h-20.9c-11.5 0-21.6-.2-22.3-.5-.8-.3-1.7-.2-2.1.1z"/></svg>