<?xml version="1.0" encoding="utf-8"?>
<!-- Generator: Adobe Illustrator 16.0.0, SVG Export Plug-In . SVG Version: 6.00 Build 0)  -->
<!DOCTYPE svg PUBLIC "-//W3C//DTD SVG 1.1//EN" "http://www.w3.org/Graphics/SVG/1.1/DTD/svg11.dtd">
<svg version="1.1" id="Layer_1" xmlns:sketch="http://www.bohemiancoding.com/sketch/ns"
	 xmlns="http://www.w3.org/2000/svg" xmlns:xlink="http://www.w3.org/1999/xlink" x="0px" y="0px" width="32px" height="32px"
	 viewBox="0 0 32 32" enable-background="new 0 0 32 32" xml:space="preserve">
<title></title>
<desc></desc>
<g id="Page-1">
	<g id="icon-111-search">
		<path id="search" fill="#FFFFFF" d="M19.428,20.428C18.037,21.418,16.336,22,14.5,22C9.806,22,6,18.194,6,13.5S9.806,5,14.5,5
			S23,8.806,23,13.5c0,2.347-0.951,4.473-2.49,6.01l5.998,5.998c0.275,0.275,0.269,0.716-0.008,0.992
			c-0.277,0.278-0.721,0.279-0.992,0.008L19.428,20.428L19.428,20.428z M14.5,21c4.143,0,7.5-3.357,7.5-7.5
			C22,9.358,18.643,6,14.5,6C10.358,6,7,9.358,7,13.5C7,17.643,10.358,21,14.5,21L14.5,21z"/>
	</g>
</g>
</svg>
