<?xml version="1.0" encoding="utf-8"?>
<!-- Generator: Adobe Illustrator 24.1.3, SVG Export Plug-In . SVG Version: 6.00 Build 0)  -->
<svg version="1.1" id="Lager_1" focusable="false" xmlns="http://www.w3.org/2000/svg" xmlns:xlink="http://www.w3.org/1999/xlink"
	 x="0px" y="0px" viewBox="0 0 512 448" style="enable-background:new 0 0 512 448;" xml:space="preserve">
<style type="text/css">
	.st0{fill:#909090;}
</style>
<path class="st0" d="M149.3,24v80c0,13.3-10.7,24-24,24H24c-13.3,0-24-10.7-24-24V24C0,10.7,10.7,0,24,0h101.3
	C138.6,0,149.3,10.7,149.3,24L149.3,24z M330.7,264v-80c0-13.3-10.7-24-24-24H205.3c-13.3,0-24,10.7-24,24v80c0,13.3,10.7,24,24,24
	h101.3C319.9,288,330.7,277.3,330.7,264z M362.7,24v80c0,13.3,10.7,24,24,24H488c13.3,0,24-10.7,24-24V24c0-13.3-10.7-24-24-24
	H386.7C373.4,0,362.7,10.7,362.7,24z M330.7,104V24c0-13.3-10.7-24-24-24H205.3c-13.3,0-24,10.7-24,24v80c0,13.3,10.7,24,24,24
	h101.3C319.9,128,330.7,117.3,330.7,104z M125.3,160H24c-13.3,0-24,10.7-24,24v80c0,13.3,10.7,24,24,24h101.3c13.3,0,24-10.7,24-24
	v-80C149.3,170.7,138.6,160,125.3,160L125.3,160z M0,344v80c0,13.3,10.7,24,24,24h101.3c13.3,0,24-10.7,24-24v-80
	c0-13.3-10.7-24-24-24H24C10.7,320,0,330.7,0,344z M386.7,288H488c13.3,0,24-10.7,24-24v-80c0-13.3-10.7-24-24-24H386.7
	c-13.3,0-24,10.7-24,24v80C362.7,277.3,373.4,288,386.7,288z M386.7,448H488c13.3,0,24-10.7,24-24v-80c0-13.3-10.7-24-24-24H386.7
	c-13.3,0-24,10.7-24,24v80C362.7,437.3,373.4,448,386.7,448z M181.3,344v80c0,13.3,10.7,24,24,24h101.3c13.3,0,24-10.7,24-24v-80
	c0-13.3-10.7-24-24-24H205.3C192.1,320,181.3,330.7,181.3,344z"/>
</svg>
