<?xml version="1.0" encoding="utf-8"?>
<!-- Generator: Adobe Illustrator 24.1.3, SVG Export Plug-In . SVG Version: 6.00 Build 0)  -->
<svg version="1.1" id="Lager_1" focusable="false" xmlns="http://www.w3.org/2000/svg" xmlns:xlink="http://www.w3.org/1999/xlink"
	 x="0px" y="0px" viewBox="0 0 512 416" style="enable-background:new 0 0 512 416;" xml:space="preserve">
<style type="text/css">
	.st0{fill:#909090;}
</style>
<path class="st0" d="M80,320H16c-8.8,0-16,7.2-16,16v64c0,8.8,7.2,16,16,16h64c8.8,0,16-7.2,16-16v-64C96,327.2,88.8,320,80,320z
	 M80,0H16C7.2,0,0,7.2,0,16v64c0,8.8,7.2,16,16,16h64c8.8,0,16-7.2,16-16V16C96,7.2,88.8,0,80,0z M80,160H16c-8.8,0-16,7.2-16,16v64
	c0,8.8,7.2,16,16,16h64c8.8,0,16-7.2,16-16v-64C96,167.2,88.8,160,80,160z M496,336H176c-8.8,0-16,7.2-16,16v32c0,8.8,7.2,16,16,16
	h320c8.8,0,16-7.2,16-16v-32C512,343.2,504.8,336,496,336z M496,16H176c-8.8,0-16,7.2-16,16v32c0,8.8,7.2,16,16,16h320
	c8.8,0,16-7.2,16-16V32C512,23.2,504.8,16,496,16z M496,176H176c-8.8,0-16,7.2-16,16v32c0,8.8,7.2,16,16,16h320c8.8,0,16-7.2,16-16
	v-32C512,183.2,504.8,176,496,176z"/>
</svg>
