<svg id="Lager_1" data-name="Lager 1" xmlns="http://www.w3.org/2000/svg" viewBox="0 0 1000 1000"><defs><style>.cls-1{fill:#c4c4c4;}</style></defs><title>Search-logo</title><path class="cls-1" d="M380.5,125a254.7,254.7,0,1,1-99.44,20.07A253.75,253.75,0,0,1,380.5,125m0-30C222.82,95,95,222.82,95,380.5S222.82,666,380.5,666,666,538.18,666,380.5,538.18,95,380.5,95Z"/><path class="cls-1" d="M585.43,558.86a19.93,19.93,0,0,0-14.14,5.85l-7.08,7.08a20,20,0,0,0,0,28.28L863.93,899.79a20,20,0,0,0,28.28,0l7.08-7.08a20,20,0,0,0,0-28.28L599.57,564.71a20,20,0,0,0-14.14-5.85Z"/></svg>