<svg id="Lager_1" data-name="Lager 1" xmlns="http://www.w3.org/2000/svg" viewBox="0 0 1920 1920"><defs><style>.cls-1{fill:#fefefe;}.cls-2{fill:#ff7373;}.cls-3{fill:#fff;}.cls-4{fill:#ffb1b1;}.cls-5{fill:#ffcece;}.cls-6{fill:#ffd3d3;}</style></defs><path class="cls-1" d="M177,1558.86V270H950.07a.79.79,0,0,1-.05,1.13c-4.24,1.77-8.86,2.06-13.23,3.37-24.12,7.2-40.71,23.16-52.89,44.58-18.32,32.22-37.08,64.21-55.57,96.34q-33.51,58.2-67.15,116.34Q733.63,579.57,706,627.32q-39.53,68.56-79.11,137.09Q597.72,815,568.44,865.55q-31.63,54.84-63.32,109.65-34,58.88-68,117.8-41.31,71.49-82.52,143-29.26,50.78-58.62,101.5-36.52,63.38-73.06,126.75c-8.8,15.34-17.44,30.78-26.58,45.91-8.52,14.12-14.66,29-16.91,45.35C178.72,1556.74,179.22,1558.78,177,1558.86Z"/><path class="cls-1" d="M971.47,270h771.36V1549.45a.79.79,0,0,1-1.13-.06c-2.48-10.72-5.66-21.16-11.2-30.79-11.1-19.27-22-38.68-33-58q-34-59.15-68-118.29-28.51-49.47-57-98.94-32.64-56.72-65.36-113.39-42-73-84.24-145.95-32.28-55.94-64.64-111.84L1285.89,747q-30.5-52.78-61.06-105.5-40.47-70-81-139.95-30.21-52.2-60.51-104.34c-16.29-28-32.18-56.17-48.89-83.89-13.29-22.06-32.78-35.59-58-40.85-1.66-.34-3.42-.41-4.91-1.37A.8.8,0,0,1,971.47,270Z"/><path class="cls-2" d="M971.52,270.74A84.16,84.16,0,0,1,1004.44,282a88.27,88.27,0,0,1,31.85,32.17c10.54,17.94,20.94,36,31.4,54q14.38,24.76,28.77,49.55,15.12,26.08,30.2,52.18l29.8,51.44q15.11,26.09,30.19,52.19l29.56,51.07,30.39,52.57q14.45,25,28.9,50,15.51,26.83,31,53.67,29.65,51.25,59.3,102.53,21.3,36.84,42.54,73.71,26.73,46.28,53.48,92.56,28.34,49.07,56.6,98.17,23,39.81,46,79.61,20.63,35.75,41.17,71.53,20.06,34.83,40.15,69.65,19.29,33.54,38.52,67.13,17.45,30.42,34.86,60.84,6.16,10.77,12.22,21.59a94.74,94.74,0,0,1,10,25.8c.41,1.83.47,3.67.73,5.49.57.8-.11,1.92.7,2.64v24c-.29,10.72-3.48,20.63-8.61,30-13.26,24.12-33.43,38.68-60.59,43.34a66.47,66.47,0,0,1-11.91.72H263c-.51,0-1,0-1.53,0a20.39,20.39,0,0,0-5.62-.41c-14.84-.68-28-6.22-40.16-14.28-20-13.26-32.16-31.88-37.08-55.29a31.26,31.26,0,0,1-.76-8.07c-.12-5.52-.59-11.06.75-16.51a97.77,97.77,0,0,1,12.81-38.67Q213.7,1478,236,1439.29q20-34.65,40-69.26,21.9-38,43.78-76,20-34.63,40-69.26,16.68-28.89,33.33-57.8,18.28-31.66,36.58-63.33,15.4-26.67,30.77-53.36,14.85-25.74,29.74-51.47,15.51-26.85,31-53.72,14.85-25.74,29.74-51.48,15.6-27,31.2-54.09l29.31-50.74q13.59-23.5,27.18-47,13.68-23.71,27.34-47.44,15.5-26.85,31-53.69,26.65-46.1,53.29-92.21,24.91-43.14,49.81-86.31,21.27-36.86,42.6-73.69c13.48-23.33,27-46.63,40.37-70,5.85-10.24,12.61-19.67,21.53-27.47a84.72,84.72,0,0,1,38.63-19.18c2.23-.48,4.5-.71,6.75-1,1.66-.79,3.58.34,5.2-.72h10.27C967.39,271.1,969.59,269.87,971.52,270.74Z"/><path class="cls-3" d="M178.59,1572.58a83.11,83.11,0,0,0,18.91,44.91c13,15.68,29.62,25.42,49.36,30,2.89.67,5.88.91,8.83,1.36,1.65.86,3.58-.27,5.21.74h0c.28.19.37.38.28.57s-.19.28-.28.28H177v-81.3C179.39,1569.42,177.57,1571.66,178.59,1572.58Z"/><path class="cls-3" d="M1663.22,1649.58c9.94-1,19.69-2.76,29-6.67a81.25,81.25,0,0,0,40.07-35.68,83.62,83.62,0,0,0,9.12-23.84,30.28,30.28,0,0,0,.64-4.64c.06-1,0-2,.8-2.77v74.45h-79.62c-.28-.19-.37-.38-.28-.57S1663.12,1649.58,1663.22,1649.58Z"/><path class="cls-4" d="M1663.22,1649.58a8,8,0,0,0,0,.85H260.9v-.85H1663.22Z"/><path class="cls-5" d="M178.59,1572.58a2.29,2.29,0,0,1-.75-1.75,2,2,0,0,0-.84-1.7v-10.27a1.93,1.93,0,0,0,.85-1.69,2.25,2.25,0,0,1,.76-1.75,21.3,21.3,0,0,1-.41,7.12,5.56,5.56,0,0,0,0,2.92A21,21,0,0,1,178.59,1572.58Z"/><path class="cls-6" d="M971.52,270.74c-2,0-4.16.59-6-.74h6A6,6,0,0,0,971.52,270.74Z"/><path class="cls-6" d="M955.21,270c-1.58,1.35-3.42.78-5.2.72a5.83,5.83,0,0,0,.06-.72Z"/><path class="cls-5" d="M1742.83,1552c-1-.67-.87-1.65-.7-2.64a2.07,2.07,0,0,1,.7.08Z"/><path class="cls-1" d="M962,1585.39H269.46c-3.27,0-6.54.07-9.76-.84a24,24,0,0,1-13.57-9.1,19.19,19.19,0,0,1-3.5-14.12,33.11,33.11,0,0,1,4.18-12c2.83-5.11,5.77-10.17,8.69-15.23q17.5-30.39,35-60.78,16.56-28.71,33.15-57.41,15.39-26.67,30.75-53.36,14.74-25.56,29.52-51.11,15.4-26.65,30.79-53.33,13.8-23.89,27.57-47.8l33.78-58.52q15.39-26.67,30.8-53.34,16.79-29.07,33.56-58.16,18.28-31.66,36.58-63.33,15.39-26.67,30.76-53.35,14.87-25.76,29.75-51.47,13.8-23.9,27.57-47.79,16.57-28.71,33.17-57.4,13.8-23.89,27.57-47.79l27.39-47.41,33.56-58.15q13.59-23.52,27.17-47,15.09-26.1,30.16-52.22,16.47-28.51,33-57,13.8-23.88,27.6-47.77,15-25.92,30-51.84c1.93-3.33,3.86-6.66,5.75-10a35.78,35.78,0,0,1,5-6.91c7.67-8.13,19.65-8.56,28.43-2.16a28.08,28.08,0,0,1,7.49,8.67q4.79,8.1,9.5,16.25l33.07,57q16.41,28.3,32.8,56.62,14.58,25.17,29.14,50.34l33.23,57.37,32.55,56.28,30.84,53.3q28,48.32,55.92,96.62,24.93,43.14,49.82,86.3,23,39.81,46,79.6,24.93,43.15,49.81,86.32,21.27,36.85,42.59,73.69,21.92,38,43.79,76,18.27,31.68,36.56,63.34,18.91,32.79,37.77,65.61,17.07,29.64,34.17,59.28,17.17,29.85,34.31,59.7,17.47,30.42,34.92,60.84,13,22.65,25.81,45.35c2.26,4,4.38,8,5.11,12.6a23.56,23.56,0,0,1-5.22,19.6c-3.49,4.16-8.37,5.77-13.67,6.13-2.13.14-4.27.07-6.41.07H962Z"/><path class="cls-4" d="M260.9,1649.58c-1.78,0-3.6.41-5.21-.75C257.47,1648.79,259.33,1648.18,260.9,1649.58Z"/><path class="cls-2" d="M960.24,697.69h36.81c1.28,0,2.57,0,3.85.08a1.33,1.33,0,0,1,1.38,1.32c.06,1,.08,2,.07,3-.08,8.7.07,17.41-.32,26.1-.72,15.67-.23,31.37-.87,47s-.23,31.37-.86,47c-.61,15.39-.22,30.8-.84,46.18-.63,15.68-.24,31.38-.86,47-.63,15.83-.23,31.66-.87,47.47-.62,15.4-.22,30.81-.84,46.19-.63,16-.24,31.94-.87,47.9-.62,15.53-.23,31.08-.85,46.61s-.23,31.09-.86,46.61-.42,31.08-.79,46.62c-.12,4.7-.33,9.4-.53,14.09-.08,1.87-.35,2.09-2.36,2.17-.85,0-1.71,0-2.56,0H930.29c-4.44,0-4.17.13-4.24-4.2-.33-21.52-.43-43.06-1.1-64.58-.51-16.53-.2-33.08-.84-49.6-.62-16.26-.22-32.52-.85-48.76-.63-16.53-.23-33.08-.86-49.61s-.22-33.08-.85-49.6-.23-32.8-.86-49.18-.22-32.8-.85-49.19-.23-33.08-.86-49.6-.22-33.09-.86-49.61c-.61-15.54-.44-31.08-.75-46.62-.11-5.16-.35-4.93,4.78-4.93Z"/><path class="cls-2" d="M1016,1367c.59,30.53-26,55.13-55.33,55s-54.92-23.77-55-54.92c-.09-30.83,25.55-55.69,55.33-55.63C990.43,1311.5,1016.78,1337.2,1016,1367Z"/></svg>