<svg id="Lager_1" data-name="Lager 1" xmlns="http://www.w3.org/2000/svg" viewBox="0 0 1920 1920"><defs><style>.cls-1{fill:#ff7373;}.cls-2{fill:#fff;}.cls-3{fill:#ffb7b7;}.cls-4{fill:#ff9b9b;}.cls-5{fill:#ffc6c6;}.cls-6{fill:#ffd9d9;}.cls-7{fill:#ff8585;}.cls-8{fill:#ffe9e9;}.cls-9{fill:#ff9696;}.cls-10{fill:#ff9d9d;}.cls-11{fill:#ffaeae;}.cls-12{fill:#ffd8d8;}.cls-13{fill:#ffcdcd;}.cls-14{fill:#ffb8b8;}.cls-15{fill:#ffbdbd;}.cls-16{fill:#fefefe;}</style></defs><path class="cls-1" d="M243,970.4V941.22A44,44,0,0,0,244,930c-.44-42.37,5.57-84,14.62-125.25a699.77,699.77,0,0,1,36.07-115.64A722.82,722.82,0,0,1,352.07,577.7a734.51,734.51,0,0,1,56.28-77.39c21.53-25.93,45.26-49.8,70.06-72.61a682.4,682.4,0,0,1,87.85-68.21,729.84,729.84,0,0,1,63.79-37.24,700,700,0,0,1,113.33-47,720.45,720.45,0,0,1,110.43-25.49A482.32,482.32,0,0,1,915.94,245c5.53-.11,11.08-.4,16.63-.43H985c20.62.11,41.29.28,61.77,2.61A672.38,672.38,0,0,1,1117,259.06a710,710,0,0,1,119.91,38,717.16,717.16,0,0,1,110,57.67,733.33,733.33,0,0,1,77,56.76,692.51,692.51,0,0,1,58.28,55A721.5,721.5,0,0,1,1567.4,576a693.1,693.1,0,0,1,49.19,91.63,762,762,0,0,1,28.24,73.87,729.06,729.06,0,0,1,26.43,114.45c3.34,22.37,3.78,44.85,4.22,67.37v18.65c.26,2.89-.57,5.84.52,8.68v20.84c-1.09,2.81-.26,5.74-.52,8.59v17.62a501.26,501.26,0,0,1-9.72,100.2,727.34,727.34,0,0,1-46.55,149.82,712,712,0,0,1-86.28,146.85c-14.37,18.93-29.81,36.93-45.85,54.5a672.21,672.21,0,0,1-54.81,53.29,715.55,715.55,0,0,1-368.41,169.46,390.63,390.63,0,0,1-55.93,4.14c-3.66,0-7.24.79-10.9.57h-7.65c-2.84.26-5.73-.57-8.52.52h-32.3c-3.79-1.11-7.66-.25-11.48-.52H922.14a10.59,10.59,0,0,1-1.69-.11c-3-.78-6.08-.26-9.12-.41-32.74-.2-64.93-5.1-96.88-11.71a705.56,705.56,0,0,1-134-41.65,735.54,735.54,0,0,1-107.12-56.53,722.89,722.89,0,0,1-80.93-60.18c-23-19.63-44.2-41.09-64.7-63.29a686.09,686.09,0,0,1-69.08-89.13,714.48,714.48,0,0,1-61-114.72,702.9,702.9,0,0,1-43.88-146.83c-5-27.27-9.22-54.69-9.27-82.57,0-5.53-.39-11.08-.42-16.63v-8.57C243.87,979.55,244.6,974.89,243,970.4Z"/><path class="cls-2" d="M931.85,244.87c-7.28.42-14.57.7-21.84,1.28-9.69.76-19.37,1.61-29,2.67-8.63.93-17.22,2.17-25.82,3.32C839,254.3,823,257.34,807,260.82A712.91,712.91,0,0,0,493.49,417.49Q341.84,548.82,279,739.45a683.47,683.47,0,0,0-24.74,101.06c-3.18,19-5.68,38.11-7.3,57.33-1,11.25-1.76,22.5-2.12,33.78-.1,3.27,0,6.62-1.81,9.6V244H931.88Q933,244.48,931.85,244.87Z"/><path class="cls-2" d="M920.62,1675.85a1.05,1.05,0,0,1,.85.06c.7.37.69.73,0,1.09H243V986c1.59-.28,1.46.89,1.55,1.86.18,1.82-.34,3.7.38,5.49q6.66,143.28,67.74,273.07a716,716,0,0,0,491.36,393q30.75,6.82,62,11c11.35,1.51,22.73,2.86,34.17,3.58,3.64.23,7.26.67,10.89,1C914.18,1676.1,917.5,1674.74,920.62,1675.85Z"/><path class="cls-2" d="M1675.11,922.4c-.37-18.07-2.27-36-4.57-53.92a712.32,712.32,0,0,0-155.69-361Q1408.77,378,1256.45,308.36a703.77,703.77,0,0,0-149-48.82q-30.33-6.35-61.09-10c-13.26-1.6-26.56-3-39.92-3.57-6.76-.3-13.52-.7-20.28-1.05-.76-.24-.78-.54,0-.88H1676V922.46C1675.66,923.18,1675.36,923.16,1675.11,922.4Z"/><path class="cls-2" d="M997.54,1676c3.28-.32,6.56-.73,9.84-.93,14.22-.83,28.37-2.27,42.5-4,17.39-2.15,34.67-5,51.87-8.41a696.84,696.84,0,0,0,99.21-27.45,709.52,709.52,0,0,0,222.42-128.45q122.31-104,189.11-250.14a708.29,708.29,0,0,0,49.67-153.19q6-29.61,9.46-59.63c1.7-15,3.25-30,3.49-45.14.25-.76.55-.78.89-.06V1677H997.54C996.84,1676.65,996.84,1676.3,997.54,1676Z"/><path class="cls-3" d="M973.65,244.86l-25.14,0c-.72-.34-.71-.64,0-.9h25C974.3,244.22,974.33,244.51,973.65,244.86Z"/><path class="cls-4" d="M243,970.4a10.26,10.26,0,0,1,2,6.33c.07,2.42,0,4.85,0,7.27-3.08-1.34-.31-4.52-2-6.3Z"/><path class="cls-5" d="M243,977.7a7.28,7.28,0,0,1,1.11,3.37A23.87,23.87,0,0,0,245,984c0,3.13.47,6.25,0,9.38a7.72,7.72,0,0,1-.89-4,5.68,5.68,0,0,0-1-3.38Z"/><path class="cls-6" d="M973.65,244.86c0-.28-.06-.57-.08-.86h12.51c0,.29,0,.59,0,.88A91.19,91.19,0,0,1,973.65,244.86Z"/><path class="cls-6" d="M1675.11,922.4a3.31,3.31,0,0,1,.89.06V935c-.36.72-.65.69-.88-.08Q1675.12,928.65,1675.11,922.4Z"/><path class="cls-6" d="M1676,998.54l-.44.06h-.45V987.13c.25-.75.55-.76.89,0Z"/><path class="cls-7" d="M937,1676.05l7.7-.08a6,6,0,0,1,3.89,1H937.09C936.37,1676.77,936.33,1676.45,937,1676.05Z"/><path class="cls-8" d="M931.85,244.87l0-.87h9.38c.71.33.7.62,0,.86Z"/><path class="cls-9" d="M1676,950.6c-1.65-2.66-.93-5.58-.94-8.42.37-.68.68-.66.94.08Z"/><path class="cls-10" d="M1675.06,979.85c0-2.84-.69-5.75.94-8.41v8.34C1675.74,980.52,1675.43,980.54,1675.06,979.85Z"/><path class="cls-3" d="M937,1676.05a6,6,0,0,1,.12,1h-8.33c-.75-.25-.77-.56-.08-.93Z"/><path class="cls-11" d="M980.86,1677c2.69-1.56,5.59-1,8.44-.87.65.37.61.66-.1.87Z"/><path class="cls-12" d="M989.2,1677c0-.29.07-.58.1-.87,2.75-.15,5.48-.56,8.24-.17v1Z"/><path class="cls-13" d="M941.21,244.86c0-.28,0-.57,0-.86h7.3c0,.3,0,.6,0,.9Z"/><path class="cls-14" d="M1676,942.26l-1-.08q0-3.64.07-7.29a3.7,3.7,0,0,1,.88.08Z"/><path class="cls-15" d="M1675.06,979.85l.94-.07v7.3a8.85,8.85,0,0,1-.89,0C1675.09,984.71,1675.08,982.28,1675.06,979.85Z"/><path class="cls-8" d="M928.68,1676.07c0,.31.06.62.08.93h-7.3c0-.36,0-.73,0-1.09Z"/><path class="cls-16" d="M960.62,320.3c356.7.69,640.07,290.29,639.81,640.67S1316.51,1600.9,959.68,1600.6c-355.63-.29-640.77-289.35-639.54-642.39C321.38,606.88,606.2,320.54,960.62,320.3Z"/><path class="cls-8" d="M920.62,1675.85c-3.22.12-6.48.73-9.56-.79C914.28,1674.93,917.5,1674.72,920.62,1675.85Z"/><path class="cls-1" d="M887.66,966.5c-.82-1.33-1.7-2.82-2.63-4.28Q762.18,769.64,639.37,577c-1.53-2.39-3.94-4.42-3.91-7.64,2.68-1,5.48-.51,8.21-.51q64.62-.06,129.22,0c7.56,0,6.06-.74,9.62,5.56q76,134.75,151.93,269.55c8.67,15.44,16.74,31.22,25.08,46.84.74,1.37,1.4,2.8,2.2,4.13,1.32,2.17,3.42,2.14,4.92-.07.87-1.3,1.64-2.67,2.43-4q26.73-45,53.44-90,67.14-113.1,134.29-226.21c3.91-6.58,2.4-5.75,10.11-5.75q62,0,124,0c1.86,0,3.8-.42,5.62.46.33,1.86-1,2.92-1.86,4.16-6.29,9.59-12.64,19.13-19,28.69Q1158,780.07,1040.21,958c-4.62,7-4.63,4.63,0,11.58q123.82,186,247.68,372.09c1.56,2.35,4,4.34,4,7.55-2.67,1.06-5.45.46-8.17.47q-64.86.06-129.74,0c-6.77,0-5.4.89-8.94-5Q1067.4,1216,989.78,1087.33c-8.86-14.72-17.1-29.82-25.63-44.75-.86-1.51-1.65-3.06-2.62-4.49a2.47,2.47,0,0,0-4,0,26.61,26.61,0,0,0-1.66,2.64c-31.11,52.42-63.43,104.09-95.34,156q-45.42,73.9-91,147.71c-3.79,6.14-2.44,5.24-9.36,5.24q-65.4,0-130.79,0-2.34,0-4.68-.12a1,1,0,0,1-.8-1.5c.81-1.33,1.65-2.65,2.53-3.93L768,1139.9,885.24,970.76A13.33,13.33,0,0,0,887.66,966.5Z"/></svg>